  0
SECTION
  2
HEADER
  9
$ACADVER
  1
AC1024
  9
$ACADMAINTVER
 70
     6
  9
$DWGCODEPAGE
  3
ANSI_1252
  9
$INSBASE
 10
0.0
 20
0.0
 30
0.0
  9
$EXTMIN
 10
1.000000000000000E+20
 20
1.000000000000000E+20
 30
1.000000000000000E+20
  9
$EXTMAX
 10
-1.000000000000000E+20
 20
-1.000000000000000E+20
 30
-1.000000000000000E+20
  9
$LIMMIN
 10
0.0
 20
0.0
  9
$LIMMAX
 10
12.0
 20
9.0
  9
$ORTHOMODE
 70
     0
  9
$REGENMODE
 70
     1
  9
$FILLMODE
 70
     1
  9
$QTEXTMODE
 70
     0
  9
$MIRRTEXT
 70
     1
  9
$LTSCALE
 40
1.0
  9
$ATTMODE
 70
     1
  9
$TEXTSIZE
 40
0.2
  9
$TRACEWID
 40
0.05
  9
$TEXTSTYLE
  7
Standard
  9
$CLAYER
  8
0
  9
$CELTYPE
  6
ByLayer
  9
$CECOLOR
 62
   256
  9
$CELTSCALE
 40
1.0
  9
$DISPSILH
 70
     0
  9
$DIMSCALE
 40
1.0
  9
$DIMASZ
 40
0.18
  9
$DIMEXO
 40
0.0625
  9
$DIMDLI
 40
0.38
  9
$DIMRND
 40
0.0
  9
$DIMDLE
 40
0.0
  9
$DIMEXE
 40
0.18
  9
$DIMTP
 40
0.0
  9
$DIMTM
 40
0.0
  9
$DIMTXT
 40
0.18
  9
$DIMCEN
 40
0.09
  9
$DIMTSZ
 40
0.0
  9
$DIMTOL
 70
     0
  9
$DIMLIM
 70
     0
  9
$DIMTIH
 70
     1
  9
$DIMTOH
 70
     1
  9
$DIMSE1
 70
     0
  9
$DIMSE2
 70
     0
  9
$DIMTAD
 70
     0
  9
$DIMZIN
 70
     0
  9
$DIMBLK
  1

  9
$DIMASO
 70
     1
  9
$DIMSHO
 70
     1
  9
$DIMPOST
  1

  9
$DIMAPOST
  1

  9
$DIMALT
 70
     0
  9
$DIMALTD
 70
     2
  9
$DIMALTF
 40
25.4
  9
$DIMLFAC
 40
1.0
  9
$DIMTOFL
 70
     0
  9
$DIMTVP
 40
0.0
  9
$DIMTIX
 70
     0
  9
$DIMSOXD
 70
     0
  9
$DIMSAH
 70
     0
  9
$DIMBLK1
  1

  9
$DIMBLK2
  1

  9
$DIMSTYLE
  2
Standard
  9
$DIMCLRD
 70
     0
  9
$DIMCLRE
 70
     0
  9
$DIMCLRT
 70
     0
  9
$DIMTFAC
 40
1.0
  9
$DIMGAP
 40
0.09
  9
$DIMJUST
 70
     0
  9
$DIMSD1
 70
     0
  9
$DIMSD2
 70
     0
  9
$DIMTOLJ
 70
     1
  9
$DIMTZIN
 70
     0
  9
$DIMALTZ
 70
     0
  9
$DIMALTTZ
 70
     0
  9
$DIMUPT
 70
     0
  9
$DIMDEC
 70
     4
  9
$DIMTDEC
 70
     4
  9
$DIMALTU
 70
     2
  9
$DIMALTTD
 70
     2
  9
$DIMTXSTY
  7
Standard
  9
$DIMAUNIT
 70
     0
  9
$DIMADEC
 70
     0
  9
$DIMALTRND
 40
0.0
  9
$DIMAZIN
 70
     0
  9
$DIMDSEP
 70
    46
  9
$DIMATFIT
 70
     3
  9
$DIMFRAC
 70
     0
  9
$DIMLDRBLK
  1

  9
$DIMLUNIT
 70
     2
  9
$DIMLWD
 70
    -2
  9
$DIMLWE
 70
    -2
  9
$DIMTMOVE
 70
     0
  9
$DIMFXL
 40
1.0
  9
$DIMFXLON
 70
     0
  9
$DIMJOGANG
 40
0.7853981633974483
  9
$DIMTFILL
 70
     0
  9
$DIMTFILLCLR
 70
     0
  9
$DIMARCSYM
 70
     0
  9
$DIMLTYPE
  6

  9
$DIMLTEX1
  6

  9
$DIMLTEX2
  6

  9
$DIMTXTDIRECTION
 70
     0
  9
$LUNITS
 70
     2
  9
$LUPREC
 70
     4
  9
$SKETCHINC
 40
0.1
  9
$FILLETRAD
 40
0.5
  9
$AUNITS
 70
     0
  9
$AUPREC
 70
     0
  9
$MENU
  1
.
  9
$ELEVATION
 40
0.0
  9
$PELEVATION
 40
0.0
  9
$THICKNESS
 40
0.0
  9
$LIMCHECK
 70
     0
  9
$CHAMFERA
 40
0.5
  9
$CHAMFERB
 40
0.5
  9
$CHAMFERC
 40
1.0
  9
$CHAMFERD
 40
0.0
  9
$SKPOLY
 70
     0
  9
$TDCREATE
 40
2459213.030741505
  9
$TDUCREATE
 40
2459212.989074838
  9
$TDUPDATE
 40
2459213.030741563
  9
$TDUUPDATE
 40
2459212.989074896
  9
$TDINDWG
 40
0.0000000116
  9
$TDUSRTIMER
 40
0.0000000116
  9
$USRTIMER
 70
     1
  9
$ANGBASE
 50
0.0
  9
$ANGDIR
 70
     0
  9
$PDMODE
 70
     0
  9
$PDSIZE
 40
0.0
  9
$PLINEWID
 40
0.0
  9
$SPLFRAME
 70
     0
  9
$SPLINETYPE
 70
     6
  9
$SPLINESEGS
 70
     8
  9
$HANDSEED
  5
86
  9
$SURFTAB1
 70
     6
  9
$SURFTAB2
 70
     6
  9
$SURFTYPE
 70
     6
  9
$SURFU
 70
     6
  9
$SURFV
 70
     6
  9
$UCSBASE
  2

  9
$UCSNAME
  2

  9
$UCSORG
 10
0.0
 20
0.0
 30
0.0
  9
$UCSXDIR
 10
1.0
 20
0.0
 30
0.0
  9
$UCSYDIR
 10
0.0
 20
1.0
 30
0.0
  9
$UCSORTHOREF
  2

  9
$UCSORTHOVIEW
 70
     0
  9
$UCSORGTOP
 10
0.0
 20
0.0
 30
0.0
  9
$UCSORGBOTTOM
 10
0.0
 20
0.0
 30
0.0
  9
$UCSORGLEFT
 10
0.0
 20
0.0
 30
0.0
  9
$UCSORGRIGHT
 10
0.0
 20
0.0
 30
0.0
  9
$UCSORGFRONT
 10
0.0
 20
0.0
 30
0.0
  9
$UCSORGBACK
 10
0.0
 20
0.0
 30
0.0
  9
$PUCSBASE
  2

  9
$PUCSNAME
  2

  9
$PUCSORG
 10
0.0
 20
0.0
 30
0.0
  9
$PUCSXDIR
 10
1.0
 20
0.0
 30
0.0
  9
$PUCSYDIR
 10
0.0
 20
1.0
 30
0.0
  9
$PUCSORTHOREF
  2

  9
$PUCSORTHOVIEW
 70
     0
  9
$PUCSORGTOP
 10
0.0
 20
0.0
 30
0.0
  9
$PUCSORGBOTTOM
 10
0.0
 20
0.0
 30
0.0
  9
$PUCSORGLEFT
 10
0.0
 20
0.0
 30
0.0
  9
$PUCSORGRIGHT
 10
0.0
 20
0.0
 30
0.0
  9
$PUCSORGFRONT
 10
0.0
 20
0.0
 30
0.0
  9
$PUCSORGBACK
 10
0.0
 20
0.0
 30
0.0
  9
$USERI1
 70
     0
  9
$USERI2
 70
     0
  9
$USERI3
 70
     0
  9
$USERI4
 70
     0
  9
$USERI5
 70
     0
  9
$USERR1
 40
0.0
  9
$USERR2
 40
0.0
  9
$USERR3
 40
0.0
  9
$USERR4
 40
0.0
  9
$USERR5
 40
0.0
  9
$WORLDVIEW
 70
     1
  9
$SHADEDGE
 70
     3
  9
$SHADEDIF
 70
    70
  9
$TILEMODE
 70
     1
  9
$MAXACTVP
 70
    64
  9
$PINSBASE
 10
0.0
 20
0.0
 30
0.0
  9
$PLIMCHECK
 70
     0
  9
$PEXTMIN
 10
1.000000000000000E+20
 20
1.000000000000000E+20
 30
1.000000000000000E+20
  9
$PEXTMAX
 10
-1.000000000000000E+20
 20
-1.000000000000000E+20
 30
-1.000000000000000E+20
  9
$PLIMMIN
 10
0.0
 20
0.0
  9
$PLIMMAX
 10
12.0
 20
9.0
  9
$UNITMODE
 70
     0
  9
$VISRETAIN
 70
     1
  9
$PLINEGEN
 70
     0
  9
$PSLTSCALE
 70
     1
  9
$TREEDEPTH
 70
  3020
  9
$CMLSTYLE
  2
Standard
  9
$CMLJUST
 70
     0
  9
$CMLSCALE
 40
1.0
  9
$PROXYGRAPHICS
 70
     1
  9
$MEASUREMENT
 70
     0
  9
$CELWEIGHT
370
    -1
  9
$ENDCAPS
280
     0
  9
$JOINSTYLE
280
     0
  9
$LWDISPLAY
290
     1
  9
$INSUNITS
 70
     4
  9
$HYPERLINKBASE
  1

  9
$STYLESHEET
  1

  9
$XEDIT
290
     1
  9
$CEPSNTYPE
380
     0
  9
$PSTYLEMODE
290
     1
  9
$FINGERPRINTGUID
  2
{34B07D14-CBCE-4773-A87F-961C1A836FC1}
  9
$VERSIONGUID
  2
{FAEB1C32-E019-11D5-929B-00C0DF256EC4}
  9
$EXTNAMES
290
     1
  9
$PSVPSCALE
 40
0.0
  9
$OLESTARTUP
290
     0
  9
$SORTENTS
280
   127
  9
$INDEXCTL
280
     0
  9
$HIDETEXT
280
     1
  9
$XCLIPFRAME
280
     2
  9
$HALOGAP
280
     0
  9
$OBSCOLOR
 70
   257
  9
$OBSLTYPE
280
     0
  9
$INTERSECTIONDISPLAY
280
     0
  9
$INTERSECTIONCOLOR
 70
   257
  9
$DIMASSOC
280
     2
  9
$PROJECTNAME
  1

  9
$CAMERADISPLAY
290
     0
  9
$LENSLENGTH
 40
50.0
  9
$CAMERAHEIGHT
 40
0.0
  9
$STEPSPERSEC
 40
2.0
  9
$STEPSIZE
 40
6.0
  9
$3DDWFPREC
 40
2.0
  9
$PSOLWIDTH
 40
0.25
  9
$PSOLHEIGHT
 40
4.0
  9
$LOFTANG1
 40
1.570796326794897
  9
$LOFTANG2
 40
1.570796326794897
  9
$LOFTMAG1
 40
0.0
  9
$LOFTMAG2
 40
0.0
  9
$LOFTPARAM
 70
     7
  9
$LOFTNORMALS
280
     1
  9
$LATITUDE
 40
37.795
  9
$LONGITUDE
 40
-122.394
  9
$NORTHDIRECTION
 40
0.0
  9
$TIMEZONE
 70
 -8000
  9
$LIGHTGLYPHDISPLAY
280
     1
  9
$TILEMODELIGHTSYNCH
280
     1
  9
$CMATERIAL
347
3C
  9
$SOLIDHIST
280
     1
  9
$SHOWHIST
280
     1
  9
$DWFFRAME
280
     2
  9
$DGNFRAME
280
     2
  9
$REALWORLDSCALE
290
     1
  9
$INTERFERECOLOR
 62
   256
  9
$CSHADOW
280
     0
  9
$SHADOWPLANELOCATION
 40
0.0
  0
ENDSEC
  0
SECTION
  2
CLASSES
  0
CLASS
  1
ACDBDICTIONARYWDFLT
  2
AcDbDictionaryWithDefault
  3
ObjectDBX Classes
 90
        0
 91
        4
280
     0
281
     0
  0
CLASS
  1
VISUALSTYLE
  2
AcDbVisualStyle
  3
ObjectDBX Classes
 90
     4095
 91
        4
280
     0
281
     0
  0
CLASS
  1
MATERIAL
  2
AcDbMaterial
  3
ObjectDBX Classes
 90
     1153
 91
        4
280
     0
281
     0
  0
CLASS
  1
SUN
  2
AcDbSun
  3
SCENEOE
 90
     1024
 91
        4
280
     0
281
     0
  0
ENDSEC
  0
SECTION
  2
TABLES
  0
TABLE
  2
VPORT
  5
8
330
0
100
AcDbSymbolTable
 70
     1
  0
VPORT
  5
29
330
8
100
AcDbSymbolTableRecord
100
AcDbViewportTableRecord
  2
*Active
 70
     0
 10
0.0
 20
0.0
 11
1.0
 21
1.0
 12
0.0
 22
0.0
 13
0.0
 23
0.0
 14
0.5
 24
0.5
 15
0.5
 25
0.5
 16
0.0
 26
0.0
 36
1.0
 17
23.2245370312308
 27
14.46388888527324
 37
0.0
 40
33.63148147307383
 41
0.8706293706293652
 42
50.0
 43
0.0
 44
0.0
 50
0.0
 51
0.0
 71
     0
 72
   100
 73
     1
 74
     3
 75
     0
 76
     0
 77
     0
 78
     0
281
     0
 65
     1
110
0.0
120
0.0
130
0.0
111
1.0
121
0.0
131
0.0
112
0.0
122
1.0
132
0.0
 79
     0
146
0.0
 60
     3
 61
     5
292
     1
282
     1
141
0.0
142
0.0
 63
   250
361
3F
  0
ENDTAB
  0
TABLE
  2
LTYPE
  5
5
330
0
100
AcDbSymbolTable
 70
     1
  0
LTYPE
  5
14
330
5
100
AcDbSymbolTableRecord
100
AcDbLinetypeTableRecord
  2
ByBlock
 70
     0
  3

 72
    65
 73
     0
 40
0.0
  0
LTYPE
  5
15
330
5
100
AcDbSymbolTableRecord
100
AcDbLinetypeTableRecord
  2
ByLayer
 70
     0
  3

 72
    65
 73
     0
 40
0.0
  0
LTYPE
  5
16
330
5
100
AcDbSymbolTableRecord
100
AcDbLinetypeTableRecord
  2
Continuous
 70
     0
  3
Solid line
 72
    65
 73
     0
 40
0.0
  0
ENDTAB
  0
TABLE
  2
LAYER
  5
2
330
0
100
AcDbSymbolTable
 70
     2
  0
LAYER
  5
10
330
2
100
AcDbSymbolTableRecord
100
AcDbLayerTableRecord
  2
0
 70
     0
 62
     7
  6
Continuous
370
    -3
390
F
347
3E
  0
LAYER
  5
40
330
2
100
AcDbSymbolTableRecord
100
AcDbLayerTableRecord
  2
Ebene 1
 70
     0
 62
     7
  6
Continuous
370
    -3
390
F
347
3E
  0
ENDTAB
  0
TABLE
  2
STYLE
  5
3
330
0
100
AcDbSymbolTable
 70
     1
  0
STYLE
  5
11
330
3
100
AcDbSymbolTableRecord
100
AcDbTextStyleTableRecord
  2
Standard
 70
     0
 40
0.0
 41
1.0
 50
0.0
 71
     0
 42
0.2
  3
txt
  4

  0
ENDTAB
  0
TABLE
  2
VIEW
  5
6
330
0
100
AcDbSymbolTable
 70
     0
  0
ENDTAB
  0
TABLE
  2
UCS
  5
7
330
0
100
AcDbSymbolTable
 70
     0
  0
ENDTAB
  0
TABLE
  2
APPID
  5
9
330
0
100
AcDbSymbolTable
 70
     1
  0
APPID
  5
12
330
9
100
AcDbSymbolTableRecord
100
AcDbRegAppTableRecord
  2
ACAD
 70
     0
  0
ENDTAB
  0
TABLE
  2
DIMSTYLE
  5
A
330
0
100
AcDbSymbolTable
 70
     1
100
AcDbDimStyleTable
  0
DIMSTYLE
105
27
330
A
100
AcDbSymbolTableRecord
100
AcDbDimStyleTableRecord
  2
Standard
 70
     0
178
     0
340
11
  0
ENDTAB
  0
TABLE
  2
BLOCK_RECORD
  5
1
330
0
100
AcDbSymbolTable
 70
     2
  0
BLOCK_RECORD
  5
1F
330
1
100
AcDbSymbolTableRecord
100
AcDbBlockTableRecord
  2
*Model_Space
340
22
 70
     0
280
     1
281
     0
  0
BLOCK_RECORD
  5
1B
330
1
100
AcDbSymbolTableRecord
100
AcDbBlockTableRecord
  2
*Paper_Space
340
1E
 70
     0
280
     1
281
     0
  0
BLOCK_RECORD
  5
23
330
1
100
AcDbSymbolTableRecord
100
AcDbBlockTableRecord
  2
*Paper_Space0
340
26
 70
     0
280
     1
281
     0
  0
BLOCK_RECORD
  5
41
330
1
100
AcDbSymbolTableRecord
100
AcDbBlockTableRecord
  2
block 2
340
0
102
{BLKREFS
331
42
102
}
 70
     0
280
     1
281
     0
  0
ENDTAB
  0
ENDSEC
  0
SECTION
  2
BLOCKS
  0
BLOCK
  5
20
330
1F
100
AcDbEntity
  8
0
100
AcDbBlockBegin
  2
*Model_Space
 70
     0
 10
0.0
 20
0.0
 30
0.0
  3
*Model_Space
  1

  0
ENDBLK
  5
21
330
1F
100
AcDbEntity
  8
0
100
AcDbBlockEnd
  0
BLOCK
  5
1C
330
1B
100
AcDbEntity
 67
     1
  8
0
100
AcDbBlockBegin
  2
*Paper_Space
 70
     0
 10
0.0
 20
0.0
 30
0.0
  3
*Paper_Space
  1

  0
ENDBLK
  5
1D
330
1B
100
AcDbEntity
 67
     1
  8
0
100
AcDbBlockEnd
  0
BLOCK
  5
24
330
23
100
AcDbEntity
  8
0
100
AcDbBlockBegin
  2
*Paper_Space0
 70
     0
 10
0.0
 20
0.0
 30
0.0
  3
*Paper_Space0
  1

  0
ENDBLK
  5
25
330
23
100
AcDbEntity
  8
0
100
AcDbBlockEnd
  0
BLOCK
  5
43
330
41
100
AcDbEntity
  8
0
100
AcDbBlockBegin
  2
block 2
 70
     0
 10
0.0
 20
0.0
 30
0.0
  3
block 2
  1

  0
SPLINE
  5
45
330
41
100
AcDbEntity
  8
Ebene 1
370
     0
100
AcDbSpline
210
0.0
220
0.0
230
1.0
 70
     8
 71
     3
 72
    80
 73
    76
 74
     0
 42
0.0000000001
 43
0.0000000001
 12
1.0
 22
0.0
 32
0.0
 13
1.0
 23
0.0
 33
0.0
 40
0.0
 40
0.0
 40
0.0
 40
0.0
 40
1.0
 40
1.0
 40
1.0
 40
2.0
 40
2.0
 40
2.0
 40
3.0
 40
3.0
 40
3.0
 40
4.0
 40
4.0
 40
4.0
 40
5.0
 40
5.0
 40
5.0
 40
6.0
 40
6.0
 40
6.0
 40
7.0
 40
7.0
 40
7.0
 40
8.0
 40
8.0
 40
8.0
 40
9.0
 40
9.0
 40
9.0
 40
10.0
 40
10.0
 40
10.0
 40
11.0
 40
11.0
 40
11.0
 40
12.0
 40
12.0
 40
12.0
 40
13.0
 40
13.0
 40
13.0
 40
14.0
 40
14.0
 40
14.0
 40
15.0
 40
15.0
 40
15.0
 40
16.0
 40
16.0
 40
16.0
 40
17.0
 40
17.0
 40
17.0
 40
18.0
 40
18.0
 40
18.0
 40
19.0
 40
19.0
 40
19.0
 40
20.0
 40
20.0
 40
20.0
 40
21.0
 40
21.0
 40
21.0
 40
22.0
 40
22.0
 40
22.0
 40
23.0
 40
23.0
 40
23.0
 40
24.0
 40
24.0
 40
24.0
 40
25.0
 40
25.0
 40
25.0
 40
25.0
 10
20.45472279797874
 20
0.3398242298987557
 30
0.0
 10
20.02449362971273
 20
1.06210364809679
 30
0.0
 10
21.17842215797076
 20
0.44782437937186
 30
0.0
 10
21.34296658772513
 20
0.6134418626915306
 30
0.0
 10
20.55073449119997
 20
4.105266078687962
 30
0.0
 10
18.17229203449154
 20
4.845333809317463
 30
0.0
 10
20.90917409509209
 20
10.54048489062795
 30
0.0
 10
21.15209322784772
 20
11.82064637650548
 30
0.0
 10
20.94282998991957
 20
12.40139511079192
 30
0.0
 10
20.8374192418713
 20
13.24348666388525
 30
0.0
 10
20.70437658271926
 20
14.12433747009132
 30
0.0
 10
21.76487779479933
 20
14.47970153177694
 30
0.0
 10
21.92912176127537
 20
15.33128848251284
 30
0.0
 10
23.83051835175015
 20
17.52206071973319
 30
0.0
 10
18.2694667929574
 20
19.97104782388285
 30
0.0
 10
16.95017038049694
 20
21.08032600100488
 30
0.0
 10
14.62916569297283
 20
21.77676186036333
 30
0.0
 10
12.10615181661288
 20
19.61067172012373
 30
0.0
 10
10.45852374275599
 20
18.25131389833082
 30
0.0
 10
9.945643964409504
 20
20.99036771697873
 30
0.0
 10
14.39803722625981
 20
21.45892926275807
 30
0.0
 10
16.53111336869347
 20
21.51518350449943
 30
0.0
 10
17.43169830368754
 20
24.32604403072219
 30
0.0
 10
15.99483882435271
 20
24.61858757868547
 30
0.0
 10
13.93727991154415
 20
23.21378415497752
 30
0.0
 10
14.37221511827303
 20
24.89485652189179
 30
0.0
 10
15.68867565120604
 20
24.22322383427241
 30
0.0
 10
16.60416832580302
 20
24.48964970043941
 30
0.0
 10
17.85707728668693
 20
28.65811970048452
 30
0.0
 10
26.89189590235113
 20
32.40742326253351
 30
0.0
 10
29.75529824903863
 20
27.26702098147117
 30
0.0
 10
32.06787640651322
 20
26.82696459028904
 30
0.0
 10
33.99213354408273
 20
27.75262655853207
 30
0.0
 10
34.20692840551664
 20
24.05174689475811
 30
0.0
 10
34.15134673438374
 20
22.48069612354067
 30
0.0
 10
32.68870296044346
 20
21.85349998244348
 30
0.0
 10
31.89469746673387
 20
21.07354660255508
 30
0.0
 10
31.27772856641932
 20
17.99540827380496
 30
0.0
 10
27.88075739786228
 20
17.72251058652942
 30
0.0
 10
26.05026818297147
 20
16.03278163400901
 30
0.0
 10
26.33533841682799
 20
14.69558748881491
 30
0.0
 10
30.138434763735
 20
13.79515984033229
 30
0.0
 10
30.35173217188605
 20
15.95148738779203
 30
0.0
 10
31.28048736237233
 20
13.03744815550431
 30
0.0
 10
31.15911984600373
 20
15.19945431056415
 30
0.0
 10
32.81912054640789
 20
15.09765539301597
 30
0.0
 10
34.0302619629197
 20
15.0296599551598
 30
0.0
 10
34.65308824300114
 20
13.74162148983707
 30
0.0
 10
34.71114072417907
 20
12.72651647611709
 30
0.0
 10
37.26264851835141
 20
11.63059099343657
 30
0.0
 10
37.77362737274532
 20
8.417615786456878
 30
0.0
 10
35.48414986903062
 20
6.923220306004819
 30
0.0
 10
34.8233152047601
 20
5.214291929425322
 30
0.0
 10
34.77510632508564
 20
3.957675027324483
 30
0.0
 10
34.07511237980579
 20
2.443908201270184
 30
0.0
 10
33.60709062021188
 20
1.884686141656263
 30
0.0
 10
32.86042324022876
 20
1.796282750475583
 30
0.0
 10
32.39604721065106
 20
2.075695300296541
 30
0.0
 10
31.44548247925269
 20
1.691028753725511
 30
0.0
 10
31.52496225152676
 20
0.0721949941674511
 30
0.0
 10
30.0021993785667
 20
0.8107570860091596
 30
0.0
 10
28.61854717416528
 20
1.185574657317946
 30
0.0
 10
28.66519980878775
 20
0.068271759004261
 30
0.0
 10
28.03373165266136
 20
-0.5928624125201791
 30
0.0
 10
26.98305355260331
 20
-0.6101133151712262
 30
0.0
 10
26.53012512498496
 20
-0.8788228772319123
 30
0.0
 10
25.80770550249609
 20
-1.3240567073016
 30
0.0
 10
24.49000508165339
 20
-0.6330190557284746
 30
0.0
 10
23.43657987989568
 20
0.486687308677815
 30
0.0
 10
21.99859157642253
 20
0.3200534664862839
 30
0.0
 10
21.00535017254427
 20
-0.4344402702330311
 30
0.0
 10
19.85771348427276
 20
-1.891978301645641
 30
0.0
 10
20.08451884593378
 20
-0.2036873327426644
 30
0.0
 10
20.55165499082466
 20
-0.5361992798922879
 30
0.0
 10
20.71592136579532
 20
-0.5025151102971427
 30
0.0
 10
20.81327561129709
 20
-0.1997968221853901
 30
0.0
  0
SPLINE
  5
46
330
41
100
AcDbEntity
  8
Ebene 1
370
     0
100
AcDbSpline
210
0.0
220
0.0
230
1.0
 70
    11
 71
     3
 72
    44
 73
    40
 74
     0
 42
0.0000000001
 43
0.0000000001
 12
1.0
 22
0.0
 32
0.0
 13
1.0
 23
0.0
 33
0.0
 40
0.0
 40
0.0
 40
0.0
 40
0.0
 40
1.0
 40
1.0
 40
1.0
 40
2.0
 40
2.0
 40
2.0
 40
3.0
 40
3.0
 40
3.0
 40
4.0
 40
4.0
 40
4.0
 40
5.0
 40
5.0
 40
5.0
 40
6.0
 40
6.0
 40
6.0
 40
7.0
 40
7.0
 40
7.0
 40
8.0
 40
8.0
 40
8.0
 40
9.0
 40
9.0
 40
9.0
 40
10.0
 40
10.0
 40
10.0
 40
11.0
 40
11.0
 40
11.0
 40
12.0
 40
12.0
 40
12.0
 40
13.0
 40
13.0
 40
13.0
 40
13.0
 10
25.64572617379718
 20
15.1085692604238
 30
0.0
 10
25.34756653629437
 20
18.7242888828836
 30
0.0
 10
34.65897037923208
 20
17.14580517314263
 30
0.0
 10
30.66071393245039
 20
25.214307623265
 30
0.0
 10
29.60182136973456
 20
27.07292626220081
 30
0.0
 10
28.10544170781084
 20
29.29810524676054
 30
0.0
 10
26.09656275322454
 20
29.52152008014782
 30
0.0
 10
23.70692061287554
 20
29.38296973006766
 30
0.0
 10
17.09363979237524
 20
27.85752141194424
 30
0.0
 10
17.16512370545888
 20
24.3387670265887
 30
0.0
 10
16.69683695392723
 20
20.09103344176117
 30
0.0
 10
17.90094478748927
 20
21.7451369212292
 30
0.0
 10
21.0551091768521
 20
18.52331769105807
 30
0.0
 10
25.23555400011951
 20
15.85979209050661
 30
0.0
 10
19.13221335746791
 20
13.35484942003569
 30
0.0
 10
21.7065717726705
 20
12.16264157573739
 30
0.0
 10
21.99773890567131
 20
10.99418382000759
 30
0.0
 10
22.91918207758664
 20
12.76423239542165
 30
0.0
 10
22.3797182473509
 20
13.09776687092187
 30
0.0
 10
23.29156425905945
 20
12.9476754714158
 30
0.0
 10
23.44815919924517
 20
13.14143859619645
 30
0.0
 10
23.21152809227984
 20
13.72896579549929
 30
0.0
 10
22.94445377086327
 20
14.83916986051969
 30
0.0
 10
23.73729463363712
 20
14.6182945904819
 30
0.0
 10
23.59083732086309
 20
15.37741620059382
 30
0.0
 10
23.9849108195614
 20
14.91722955519605
 30
0.0
 10
24.32962105668305
 20
14.8882626450644
 30
0.0
 10
24.63407666124242
 20
14.6039589286929
 30
0.0
 10
24.3979771545405
 20
16.02062261033659
 30
0.0
 10
25.32109773353847
 20
15.80108566271391
 30
0.0
 10
25.4834730882636
 20
15.18824722729817
 30
0.0
 10
25.14779830331238
 20
15.5682826335425
 30
0.0
 10
25.180660587395
 20
15.48093936903922
 30
0.0
 10
24.95333077805309
 20
15.59462991674319
 30
0.0
 10
24.82372923488682
 20
14.18145131269257
 30
0.0
 10
25.98335454577389
 20
14.4442879367371
 30
0.0
 10
25.47007040368333
 20
15.20189888945561
 30
0.0
 10
25.52862189648739
 20
15.17078901311189
 30
0.0
 10
25.5871746809928
 20
15.13967913676816
 30
0.0
 10
25.64572617379718
 20
15.1085692604238
 30
0.0
  0
SPLINE
  5
47
330
41
100
AcDbEntity
  8
Ebene 1
370
     0
100
AcDbSpline
210
0.0
220
0.0
230
1.0
 70
    11
 71
     3
 72
    35
 73
    31
 74
     0
 42
0.0000000001
 43
0.0000000001
 12
1.0
 22
0.0
 32
0.0
 13
1.0
 23
0.0
 33
0.0
 40
0.0
 40
0.0
 40
0.0
 40
0.0
 40
1.0
 40
1.0
 40
1.0
 40
2.0
 40
2.0
 40
2.0
 40
3.0
 40
3.0
 40
3.0
 40
4.0
 40
4.0
 40
4.0
 40
5.0
 40
5.0
 40
5.0
 40
6.0
 40
6.0
 40
6.0
 40
7.0
 40
7.0
 40
7.0
 40
8.0
 40
8.0
 40
8.0
 40
9.0
 40
9.0
 40
9.0
 40
10.0
 40
10.0
 40
10.0
 40
10.0
 10
24.71256296799902
 20
11.20817997775789
 30
0.0
 10
19.14068410737138
 20
9.635395145339977
 30
0.0
 10
22.07706686893168
 20
1.881984628816105
 30
0.0
 10
28.40014752956776
 20
2.164900595508056
 30
0.0
 10
29.92488530151999
 20
2.516370241625024
 30
0.0
 10
30.07346612198859
 20
1.807076936210723
 30
0.0
 10
30.52569639558139
 20
1.198878988318437
 30
0.0
 10
31.5612375323811
 20
0.4857841437325854
 30
0.0
 10
32.15506089473785
 20
2.497837983073446
 30
0.0
 10
31.81481551467327
 20
3.149279209469038
 30
0.0
 10
32.75708694938935
 20
2.084920638954833
 30
0.0
 10
35.04163918119158
 20
5.392663456452054
 30
0.0
 10
35.01908292142082
 20
6.302900950028627
 30
0.0
 10
33.25946656367402
 20
6.19288395616993
 30
0.0
 10
31.43439937589657
 20
4.990549559336707
 30
0.0
 10
30.41909021396608
 20
7.474239286277435
 30
0.0
 10
29.87079896069017
 20
10.65115666262434
 30
0.0
 10
30.80958857069918
 20
11.26791676301834
 30
0.0
 10
32.84586668365893
 20
12.59308944045133
 30
0.0
 10
31.23446671640113
 20
14.27149511083601
 30
0.0
 10
29.01449291851509
 20
14.76101341081382
 30
0.0
 10
26.85057361003125
 20
13.89508197443816
 30
0.0
 10
25.4993401376291
 20
13.5974862157433
 30
0.0
 10
25.06213495937008
 20
13.35984714916355
 30
0.0
 10
25.58826625382425
 20
12.38860043294856
 30
0.0
 10
25.10367169783981
 20
11.8391326804227
 30
0.0
 10
23.36898078042749
 20
13.00474835758227
 30
0.0
 10
22.88516324364503
 20
12.66524336032828
 30
0.0
 10
23.63049760627409
 20
12.06523988342126
 30
0.0
 10
24.22118322818208
 20
11.65633865707779
 30
0.0
 10
24.71256296799902
 20
11.20817997775789
 30
0.0
  0
SPLINE
  5
48
330
41
100
AcDbEntity
  8
Ebene 1
370
     0
100
AcDbSpline
210
0.0
220
0.0
230
1.0
 70
    11
 71
     3
 72
    11
 73
     7
 74
     0
 42
0.0000000001
 43
0.0000000001
 12
1.0
 22
0.0
 32
0.0
 13
1.0
 23
0.0
 33
0.0
 40
0.0
 40
0.0
 40
0.0
 40
0.0
 40
1.0
 40
1.0
 40
1.0
 40
2.0
 40
2.0
 40
2.0
 40
2.0
 10
36.68522346780367
 20
9.513285374619235
 30
0.0
 10
36.32374827934779
 20
13.63339367547443
 30
0.0
 10
31.08118564363845
 20
13.15262779188866
 30
0.0
 10
31.04346880009059
 20
9.349802419360506
 30
0.0
 10
31.09129767722597
 20
5.332275352290443
 30
0.0
 10
36.62411195616878
 20
5.80167017497071
 30
0.0
 10
36.68522346780367
 20
9.513285374619235
 30
0.0
  0
SPLINE
  5
49
330
41
100
AcDbEntity
  8
Ebene 1
370
     0
100
AcDbSpline
210
0.0
220
0.0
230
1.0
 70
    11
 71
     3
 72
    14
 73
    10
 74
     0
 42
0.0000000001
 43
0.0000000001
 12
1.0
 22
0.0
 32
0.0
 13
1.0
 23
0.0
 33
0.0
 40
0.0
 40
0.0
 40
0.0
 40
0.0
 40
1.0
 40
1.0
 40
1.0
 40
2.0
 40
2.0
 40
2.0
 40
3.0
 40
3.0
 40
3.0
 40
3.0
 10
30.22340430643174
 20
26.56927981031071
 30
0.0
 10
31.16862480563737
 20
25.00282435728017
 30
0.0
 10
31.68317639290846
 20
23.21150220294525
 30
0.0
 10
31.86195070798407
 20
21.66873427408589
 30
0.0
 10
33.11209701621455
 20
21.82730829477974
 30
0.0
 10
33.85727494337491
 20
23.00477284053335
 30
0.0
 10
33.92812539962169
 20
24.28797324446352
 30
0.0
 10
33.80222931841838
 20
26.19897951671244
 30
0.0
 10
31.76944352286775
 20
27.5493782571611
 30
0.0
 10
30.22340430643174
 20
26.56927981031071
 30
0.0
  0
SPLINE
  5
4A
330
41
100
AcDbEntity
  8
Ebene 1
370
     0
100
AcDbSpline
210
0.0
220
0.0
230
1.0
 70
    11
 71
     3
 72
    11
 73
     7
 74
     0
 42
0.0000000001
 43
0.0000000001
 12
1.0
 22
0.0
 32
0.0
 13
1.0
 23
0.0
 33
0.0
 40
0.0
 40
0.0
 40
0.0
 40
0.0
 40
1.0
 40
1.0
 40
1.0
 40
2.0
 40
2.0
 40
2.0
 40
2.0
 10
33.15188666046177
 20
12.71598334934405
 30
0.0
 10
35.61236557827066
 20
12.55152848297292
 30
0.0
 10
33.87210352807234
 20
14.75797708342406
 30
0.0
 10
32.52885851994816
 20
14.69668405571662
 30
0.0
 10
30.00685043165233
 20
14.39451583276519
 30
0.0
 10
32.42634791636082
 20
13.30932117696954
 30
0.0
 10
33.15188666046177
 20
12.71598334934405
 30
0.0
  0
SPLINE
  5
4B
330
41
100
AcDbEntity
  8
Ebene 1
370
     0
100
AcDbSpline
210
0.0
220
0.0
230
1.0
 70
    11
 71
     3
 72
    11
 73
     7
 74
     0
 42
0.0000000001
 43
0.0000000001
 12
1.0
 22
0.0
 32
0.0
 13
1.0
 23
0.0
 33
0.0
 40
0.0
 40
0.0
 40
0.0
 40
0.0
 40
1.0
 40
1.0
 40
1.0
 40
2.0
 40
2.0
 40
2.0
 40
2.0
 10
33.43509024018965
 20
2.639724493672589
 30
0.0
 10
34.29331712259692
 20
2.066595881258955
 30
0.0
 10
34.28511410256016
 20
4.016436156004863
 30
0.0
 10
34.15076290009798
 20
4.180259348809209
 30
0.0
 10
33.52273466667884
 20
3.612212398094511
 30
0.0
 10
32.56339415273372
 20
3.05196383933356
 30
0.0
 10
33.43509024018965
 20
2.639724493672589
 30
0.0
  0
SPLINE
  5
4C
330
41
100
AcDbEntity
  8
Ebene 1
370
     0
100
AcDbSpline
210
0.0
220
0.0
230
1.0
 70
    11
 71
     3
 72
    11
 73
     7
 74
     0
 42
0.0000000001
 43
0.0000000001
 12
1.0
 22
0.0
 32
0.0
 13
1.0
 23
0.0
 33
0.0
 40
0.0
 40
0.0
 40
0.0
 40
0.0
 40
1.0
 40
1.0
 40
1.0
 40
2.0
 40
2.0
 40
2.0
 40
2.0
 10
29.90845930486751
 20
14.52542796471118
 30
0.0
 10
31.27218740722637
 20
13.94243164903472
 30
0.0
 10
30.44501046429622
 20
14.98184330194128
 30
0.0
 10
30.36433658552466
 20
15.4780592658859
 30
0.0
 10
29.95496551445059
 20
14.72914249401569
 30
0.0
 10
30.06801211214496
 20
14.84375638971997
 30
0.0
 10
29.90845930486751
 20
14.52542796471118
 30
0.0
  0
SPLINE
  5
4D
330
41
100
AcDbEntity
  8
Ebene 1
370
     0
100
AcDbSpline
210
0.0
220
0.0
230
1.0
 70
    11
 71
     3
 72
    11
 73
     7
 74
     0
 42
0.0000000001
 43
0.0000000001
 12
1.0
 22
0.0
 32
0.0
 13
1.0
 23
0.0
 33
0.0
 40
0.0
 40
0.0
 40
0.0
 40
0.0
 40
1.0
 40
1.0
 40
1.0
 40
2.0
 40
2.0
 40
2.0
 40
2.0
 10
27.6022881991675
 20
-0.5205753622484935
 30
0.0
 10
28.15835956767977
 20
-0.365981377799835
 30
0.0
 10
28.31389550804914
 20
0.2552262503970214
 30
0.0
 10
28.17449602852504
 20
0.4110572567670447
 30
0.0
 10
27.5557019413694
 20
0.4103950477730827
 30
0.0
 10
27.63596944262081
 20
-0.3935068565517266
 30
0.0
 10
27.6022881991675
 20
-0.5205753622484935
 30
0.0
  0
SPLINE
  5
4E
330
41
100
AcDbEntity
  8
Ebene 1
370
     0
100
AcDbSpline
210
0.0
220
0.0
230
1.0
 70
    11
 71
     3
 72
    11
 73
     7
 74
     0
 42
0.0000000001
 43
0.0000000001
 12
1.0
 22
0.0
 32
0.0
 13
1.0
 23
0.0
 33
0.0
 40
0.0
 40
0.0
 40
0.0
 40
0.0
 40
1.0
 40
1.0
 40
1.0
 40
2.0
 40
2.0
 40
2.0
 40
2.0
 10
26.78301035319264
 20
0.1156884528974841
 30
0.0
 10
26.33221000275029
 20
-0.2397906660541272
 30
0.0
 10
25.98826937526175
 20
-0.8938623907910442
 30
0.0
 10
25.56469004934333
 20
-0.9631790668322325
 30
0.0
 10
26.39597163285689
 20
-1.196773777034676
 30
0.0
 10
26.79885817506062
 20
-0.241458438454018
 30
0.0
 10
26.78301035319264
 20
0.1156884528974841
 30
0.0
  0
HATCH
  5
4F
330
41
100
AcDbEntity
  8
Ebene 1
 62
     7
420
 16777215
100
AcDbHatch
 10
0.0
 20
0.0
 30
0.0
210
0.0
220
0.0
230
1.0
  2
SOLID
 70
     1
 71
     0
 91
       10
 92
        1
 93
        1
 72
     4
 94
        3
 73
     0
 74
     1
 95
       44
 96
       40
 40
0.0
 40
0.0
 40
0.0
 40
0.0
 40
1.0
 40
1.0
 40
1.0
 40
2.0
 40
2.0
 40
2.0
 40
3.0
 40
3.0
 40
3.0
 40
4.0
 40
4.0
 40
4.0
 40
5.0
 40
5.0
 40
5.0
 40
6.0
 40
6.0
 40
6.0
 40
7.0
 40
7.0
 40
7.0
 40
8.0
 40
8.0
 40
8.0
 40
9.0
 40
9.0
 40
9.0
 40
10.0
 40
10.0
 40
10.0
 40
11.0
 40
11.0
 40
11.0
 40
12.0
 40
12.0
 40
12.0
 40
13.0
 40
13.0
 40
13.0
 40
13.0
 10
25.64572617379718
 20
15.1085692604238
 10
25.34756653629437
 20
18.7242888828836
 10
34.65897037923208
 20
17.14580517314263
 10
30.66071393245039
 20
25.214307623265
 10
29.60182136973456
 20
27.07292626220081
 10
28.10544170781084
 20
29.29810524676054
 10
26.09656275322454
 20
29.52152008014782
 10
23.70692061287554
 20
29.38296973006766
 10
17.09363979237524
 20
27.85752141194424
 10
17.16512370545888
 20
24.3387670265887
 10
16.69683695392723
 20
20.09103344176117
 10
17.90094478748927
 20
21.7451369212292
 10
21.0551091768521
 20
18.52331769105807
 10
25.23555400011951
 20
15.85979209050661
 10
19.13221335746791
 20
13.35484942003569
 10
21.7065717726705
 20
12.16264157573739
 10
21.99773890567131
 20
10.99418382000759
 10
22.91918207758664
 20
12.76423239542165
 10
22.3797182473509
 20
13.09776687092187
 10
23.29156425905945
 20
12.9476754714158
 10
23.44815919924517
 20
13.14143859619645
 10
23.21152809227984
 20
13.72896579549929
 10
22.94445377086327
 20
14.83916986051969
 10
23.73729463363712
 20
14.6182945904819
 10
23.59083732086309
 20
15.37741620059382
 10
23.9849108195614
 20
14.91722955519605
 10
24.32962105668305
 20
14.8882626450644
 10
24.63407666124242
 20
14.6039589286929
 10
24.3979771545405
 20
16.02062261033659
 10
25.32109773353847
 20
15.80108566271391
 10
25.4834730882636
 20
15.18824722729817
 10
25.14779830331238
 20
15.5682826335425
 10
25.180660587395
 20
15.48093936903922
 10
24.95333077805309
 20
15.59462991674319
 10
24.82372923488682
 20
14.18145131269257
 10
25.98335454577389
 20
14.4442879367371
 10
25.47007040368333
 20
15.20189888945561
 10
25.52862189648739
 20
15.17078901311189
 10
25.5871746809928
 20
15.13967913676816
 10
25.64572617379718
 20
15.1085692604238
 97
        0
 97
        0
 92
        1
 93
        1
 72
     4
 94
        3
 73
     0
 74
     1
 95
       35
 96
       31
 40
0.0
 40
0.0
 40
0.0
 40
0.0
 40
1.0
 40
1.0
 40
1.0
 40
2.0
 40
2.0
 40
2.0
 40
3.0
 40
3.0
 40
3.0
 40
4.0
 40
4.0
 40
4.0
 40
5.0
 40
5.0
 40
5.0
 40
6.0
 40
6.0
 40
6.0
 40
7.0
 40
7.0
 40
7.0
 40
8.0
 40
8.0
 40
8.0
 40
9.0
 40
9.0
 40
9.0
 40
10.0
 40
10.0
 40
10.0
 40
10.0
 10
24.71256296799902
 20
11.20817997775789
 10
19.14068410737138
 20
9.635395145339977
 10
22.07706686893168
 20
1.881984628816105
 10
28.40014752956776
 20
2.164900595508056
 10
29.92488530151999
 20
2.516370241625024
 10
30.07346612198859
 20
1.807076936210723
 10
30.52569639558139
 20
1.198878988318437
 10
31.5612375323811
 20
0.4857841437325854
 10
32.15506089473785
 20
2.497837983073446
 10
31.81481551467327
 20
3.149279209469038
 10
32.75708694938935
 20
2.084920638954833
 10
35.04163918119158
 20
5.392663456452054
 10
35.01908292142082
 20
6.302900950028627
 10
33.25946656367402
 20
6.19288395616993
 10
31.43439937589657
 20
4.990549559336707
 10
30.41909021396608
 20
7.474239286277435
 10
29.87079896069017
 20
10.65115666262434
 10
30.80958857069918
 20
11.26791676301834
 10
32.84586668365893
 20
12.59308944045133
 10
31.23446671640113
 20
14.27149511083601
 10
29.01449291851509
 20
14.76101341081382
 10
26.85057361003125
 20
13.89508197443816
 10
25.4993401376291
 20
13.5974862157433
 10
25.06213495937008
 20
13.35984714916355
 10
25.58826625382425
 20
12.38860043294856
 10
25.10367169783981
 20
11.8391326804227
 10
23.36898078042749
 20
13.00474835758227
 10
22.88516324364503
 20
12.66524336032828
 10
23.63049760627409
 20
12.06523988342126
 10
24.22118322818208
 20
11.65633865707779
 10
24.71256296799902
 20
11.20817997775789
 97
        0
 97
        0
 92
        1
 93
        1
 72
     4
 94
        3
 73
     0
 74
     1
 95
       11
 96
        7
 40
0.0
 40
0.0
 40
0.0
 40
0.0
 40
1.0
 40
1.0
 40
1.0
 40
2.0
 40
2.0
 40
2.0
 40
2.0
 10
36.68522346780367
 20
9.513285374619235
 10
36.32374827934779
 20
13.63339367547443
 10
31.08118564363845
 20
13.15262779188866
 10
31.04346880009059
 20
9.349802419360506
 10
31.09129767722597
 20
5.332275352290443
 10
36.62411195616878
 20
5.80167017497071
 10
36.68522346780367
 20
9.513285374619235
 97
        0
 97
        0
 92
        1
 93
        1
 72
     4
 94
        3
 73
     0
 74
     1
 95
       14
 96
       10
 40
0.0
 40
0.0
 40
0.0
 40
0.0
 40
1.0
 40
1.0
 40
1.0
 40
2.0
 40
2.0
 40
2.0
 40
3.0
 40
3.0
 40
3.0
 40
3.0
 10
30.22340430643174
 20
26.56927981031071
 10
31.16862480563737
 20
25.00282435728017
 10
31.68317639290846
 20
23.21150220294525
 10
31.86195070798407
 20
21.66873427408589
 10
33.11209701621455
 20
21.82730829477974
 10
33.85727494337491
 20
23.00477284053335
 10
33.92812539962169
 20
24.28797324446352
 10
33.80222931841838
 20
26.19897951671244
 10
31.76944352286775
 20
27.5493782571611
 10
30.22340430643174
 20
26.56927981031071
 97
        0
 97
        0
 92
        1
 93
        1
 72
     4
 94
        3
 73
     0
 74
     1
 95
       11
 96
        7
 40
0.0
 40
0.0
 40
0.0
 40
0.0
 40
1.0
 40
1.0
 40
1.0
 40
2.0
 40
2.0
 40
2.0
 40
2.0
 10
33.15188666046177
 20
12.71598334934405
 10
35.61236557827066
 20
12.55152848297292
 10
33.87210352807234
 20
14.75797708342406
 10
32.52885851994816
 20
14.69668405571662
 10
30.00685043165233
 20
14.39451583276519
 10
32.42634791636082
 20
13.30932117696954
 10
33.15188666046177
 20
12.71598334934405
 97
        0
 97
        0
 92
        1
 93
        1
 72
     4
 94
        3
 73
     0
 74
     1
 95
       11
 96
        7
 40
0.0
 40
0.0
 40
0.0
 40
0.0
 40
1.0
 40
1.0
 40
1.0
 40
2.0
 40
2.0
 40
2.0
 40
2.0
 10
33.43509024018965
 20
2.639724493672589
 10
34.29331712259692
 20
2.066595881258955
 10
34.28511410256016
 20
4.016436156004863
 10
34.15076290009798
 20
4.180259348809209
 10
33.52273466667884
 20
3.612212398094511
 10
32.56339415273372
 20
3.05196383933356
 10
33.43509024018965
 20
2.639724493672589
 97
        0
 97
        0
 92
        1
 93
        1
 72
     4
 94
        3
 73
     0
 74
     1
 95
       11
 96
        7
 40
0.0
 40
0.0
 40
0.0
 40
0.0
 40
1.0
 40
1.0
 40
1.0
 40
2.0
 40
2.0
 40
2.0
 40
2.0
 10
29.90845930486751
 20
14.52542796471118
 10
31.27218740722637
 20
13.94243164903472
 10
30.44501046429622
 20
14.98184330194128
 10
30.36433658552466
 20
15.4780592658859
 10
29.95496551445059
 20
14.72914249401569
 10
30.06801211214496
 20
14.84375638971997
 10
29.90845930486751
 20
14.52542796471118
 97
        0
 97
        0
 92
        1
 93
        1
 72
     4
 94
        3
 73
     0
 74
     1
 95
       11
 96
        7
 40
0.0
 40
0.0
 40
0.0
 40
0.0
 40
1.0
 40
1.0
 40
1.0
 40
2.0
 40
2.0
 40
2.0
 40
2.0
 10
27.6022881991675
 20
-0.5205753622484935
 10
28.15835956767977
 20
-0.365981377799835
 10
28.31389550804914
 20
0.2552262503970214
 10
28.17449602852504
 20
0.4110572567670447
 10
27.5557019413694
 20
0.4103950477730827
 10
27.63596944262081
 20
-0.3935068565517266
 10
27.6022881991675
 20
-0.5205753622484935
 97
        0
 97
        0
 92
        1
 93
        1
 72
     4
 94
        3
 73
     0
 74
     1
 95
       11
 96
        7
 40
0.0
 40
0.0
 40
0.0
 40
0.0
 40
1.0
 40
1.0
 40
1.0
 40
2.0
 40
2.0
 40
2.0
 40
2.0
 10
26.78301035319264
 20
0.1156884528974841
 10
26.33221000275029
 20
-0.2397906660541272
 10
25.98826937526175
 20
-0.8938623907910442
 10
25.56469004934333
 20
-0.9631790668322325
 10
26.39597163285689
 20
-1.196773777034676
 10
26.79885817506062
 20
-0.241458438454018
 10
26.78301035319264
 20
0.1156884528974841
 97
        0
 97
        0
 92
        1
 93
        2
 72
     4
 94
        3
 73
     0
 74
     0
 95
       80
 96
       76
 40
0.0
 40
0.0
 40
0.0
 40
0.0
 40
0.3527777776895833
 40
0.3527777776895833
 40
0.3527777776895833
 40
0.7055555553791667
 40
0.7055555553791667
 40
0.7055555553791667
 40
1.05833333306875
 40
1.05833333306875
 40
1.05833333306875
 40
1.411111110758333
 40
1.411111110758333
 40
1.411111110758333
 40
1.763888888447917
 40
1.763888888447917
 40
1.763888888447917
 40
2.1166666661375
 40
2.1166666661375
 40
2.1166666661375
 40
2.469444443827083
 40
2.469444443827083
 40
2.469444443827083
 40
2.822222221516667
 40
2.822222221516667
 40
2.822222221516667
 40
3.17499999920625
 40
3.17499999920625
 40
3.17499999920625
 40
3.527777776895833
 40
3.527777776895833
 40
3.527777776895833
 40
3.880555554585417
 40
3.880555554585417
 40
3.880555554585417
 40
4.233333332275
 40
4.233333332275
 40
4.233333332275
 40
4.586111109964584
 40
4.586111109964584
 40
4.586111109964584
 40
4.938888887654167
 40
4.938888887654167
 40
4.938888887654167
 40
5.29166666534375
 40
5.29166666534375
 40
5.29166666534375
 40
5.644444443033334
 40
5.644444443033334
 40
5.644444443033334
 40
5.997222220722917
 40
5.997222220722917
 40
5.997222220722917
 40
6.349999998412501
 40
6.349999998412501
 40
6.349999998412501
 40
6.702777776102083
 40
6.702777776102083
 40
6.702777776102083
 40
7.055555553791667
 40
7.055555553791667
 40
7.055555553791667
 40
7.40833333148125
 40
7.40833333148125
 40
7.40833333148125
 40
7.761111109170834
 40
7.761111109170834
 40
7.761111109170834
 40
8.113888886860417
 40
8.113888886860417
 40
8.113888886860417
 40
8.46666666455
 40
8.46666666455
 40
8.46666666455
 40
8.819444442239584
 40
8.819444442239584
 40
8.819444442239584
 40
8.819444442239584
 10
20.45472279797874
 20
0.3398242298987557
 10
20.02449362971273
 20
1.06210364809679
 10
21.17842215797076
 20
0.44782437937186
 10
21.34296658772513
 20
0.6134418626915306
 10
20.55073449119997
 20
4.105266078687962
 10
18.17229203449154
 20
4.845333809317463
 10
20.90917409509209
 20
10.54048489062795
 10
21.15209322784772
 20
11.82064637650548
 10
20.94282998991957
 20
12.40139511079192
 10
20.8374192418713
 20
13.24348666388525
 10
20.70437658271926
 20
14.12433747009132
 10
21.76487779479933
 20
14.47970153177694
 10
21.92912176127537
 20
15.33128848251284
 10
23.83051835175015
 20
17.52206071973319
 10
18.2694667929574
 20
19.97104782388285
 10
16.95017038049694
 20
21.08032600100488
 10
14.62916569297283
 20
21.77676186036333
 10
12.10615181661288
 20
19.61067172012373
 10
10.45852374275599
 20
18.25131389833082
 10
9.945643964409504
 20
20.99036771697873
 10
14.39803722625981
 20
21.45892926275807
 10
16.53111336869347
 20
21.51518350449943
 10
17.43169830368754
 20
24.32604403072219
 10
15.99483882435271
 20
24.61858757868547
 10
13.93727991154415
 20
23.21378415497752
 10
14.37221511827303
 20
24.89485652189179
 10
15.68867565120604
 20
24.22322383427241
 10
16.60416832580302
 20
24.48964970043941
 10
17.85707728668693
 20
28.65811970048452
 10
26.89189590235113
 20
32.40742326253351
 10
29.75529824903863
 20
27.26702098147117
 10
32.06787640651322
 20
26.82696459028904
 10
33.99213354408273
 20
27.75262655853207
 10
34.20692840551664
 20
24.05174689475811
 10
34.15134673438374
 20
22.48069612354067
 10
32.68870296044346
 20
21.85349998244348
 10
31.89469746673387
 20
21.07354660255508
 10
31.27772856641932
 20
17.99540827380496
 10
27.88075739786228
 20
17.72251058652942
 10
26.05026818297147
 20
16.03278163400901
 10
26.33533841682799
 20
14.69558748881491
 10
30.138434763735
 20
13.79515984033229
 10
30.35173217188605
 20
15.95148738779203
 10
31.28048736237233
 20
13.03744815550431
 10
31.15911984600373
 20
15.19945431056415
 10
32.81912054640789
 20
15.09765539301597
 10
34.0302619629197
 20
15.0296599551598
 10
34.65308824300114
 20
13.74162148983707
 10
34.71114072417907
 20
12.72651647611709
 10
37.26264851835141
 20
11.63059099343657
 10
37.77362737274532
 20
8.417615786456878
 10
35.48414986903062
 20
6.923220306004819
 10
34.8233152047601
 20
5.214291929425322
 10
34.77510632508564
 20
3.957675027324483
 10
34.07511237980579
 20
2.443908201270184
 10
33.60709062021188
 20
1.884686141656263
 10
32.86042324022876
 20
1.796282750475583
 10
32.39604721065106
 20
2.075695300296541
 10
31.44548247925269
 20
1.691028753725511
 10
31.52496225152676
 20
0.0721949941674511
 10
30.0021993785667
 20
0.8107570860091596
 10
28.61854717416528
 20
1.185574657317946
 10
28.66519980878775
 20
0.068271759004261
 10
28.03373165266136
 20
-0.5928624125201791
 10
26.98305355260331
 20
-0.6101133151712262
 10
26.53012512498496
 20
-0.8788228772319123
 10
25.80770550249609
 20
-1.3240567073016
 10
24.49000508165339
 20
-0.6330190557284746
 10
23.43657987989568
 20
0.486687308677815
 10
21.99859157642253
 20
0.3200534664862839
 10
21.00535017254427
 20
-0.4344402702330311
 10
19.85771348427276
 20
-1.891978301645641
 10
20.08451884593378
 20
-0.2036873327426644
 10
20.55165499082466
 20
-0.5361992798922879
 10
20.71592136579532
 20
-0.5025151102971427
 10
20.81327561129709
 20
-0.1997968221853901
 97
        0
 72
     1
 10
20.81327561129709
 20
-0.1997968221853901
 11
20.45472279797874
 21
0.3398242298987557
 97
        0
 75
     2
 76
     1
 98
        0
  0
SPLINE
  5
50
330
41
100
AcDbEntity
  8
Ebene 1
370
     0
100
AcDbSpline
210
0.0
220
0.0
230
1.0
 70
    11
 71
     3
 72
    41
 73
    37
 74
     0
 42
0.0000000001
 43
0.0000000001
 12
1.0
 22
0.0
 32
0.0
 13
1.0
 23
0.0
 33
0.0
 40
0.0
 40
0.0
 40
0.0
 40
0.0
 40
1.0
 40
1.0
 40
1.0
 40
2.0
 40
2.0
 40
2.0
 40
3.0
 40
3.0
 40
3.0
 40
4.0
 40
4.0
 40
4.0
 40
5.0
 40
5.0
 40
5.0
 40
6.0
 40
6.0
 40
6.0
 40
7.0
 40
7.0
 40
7.0
 40
8.0
 40
8.0
 40
8.0
 40
9.0
 40
9.0
 40
9.0
 40
10.0
 40
10.0
 40
10.0
 40
11.0
 40
11.0
 40
11.0
 40
12.0
 40
12.0
 40
12.0
 40
12.0
 10
25.4834730882636
 20
15.18824722729817
 30
0.0
 10
24.77440963097223
 20
16.62182772070464
 30
0.0
 10
24.54320275122713
 20
14.97016604259603
 30
0.0
 10
24.63407666124242
 20
14.6039589286929
 30
0.0
 10
24.10728792332248
 20
15.06636541947264
 30
0.0
 10
23.79167998741111
 20
15.03026506998663
 30
0.0
 10
23.59083732086309
 20
15.37741749226404
 30
0.0
 10
23.66898653795663
 20
14.50898446687695
 30
0.0
 10
23.29953869883262
 20
14.82683358172052
 30
0.0
 10
23.21571267289808
 20
14.35016004137711
 30
0.0
 10
23.22064053086186
 20
12.85873204946962
 30
0.0
 10
23.55744098446247
 20
13.06896751002971
 30
0.0
 10
22.3797182473509
 20
13.09776687092187
 30
0.0
 10
23.03459119568762
 20
11.95664002958624
 30
0.0
 10
21.61321703352084
 20
11.37473572925753
 30
0.0
 10
21.7065717726705
 20
12.16264157573739
 30
0.0
 10
19.29082000689913
 20
13.05639599900433
 30
0.0
 10
24.6832632680483
 20
16.36343690861042
 30
0.0
 10
21.70218548352022
 20
17.86215281074632
 30
0.0
 10
20.54935848890998
 20
19.45207282542777
 30
0.0
 10
18.13995667167341
 20
20.45923467345574
 30
0.0
 10
17.10015339532544
 20
21.73160483033178
 30
0.0
 10
16.41133812944143
 20
27.02398302629358
 30
0.0
 10
20.32057374764232
 20
28.68388687902903
 30
0.0
 10
25.12230893702625
 20
29.40493154697548
 30
0.0
 10
27.92948803636581
 20
29.97438063221518
 30
0.0
 10
29.17918551621703
 20
27.44019753427672
 30
0.0
 10
30.45484466805791
 20
25.59588854725312
 30
0.0
 10
34.79350870629502
 20
17.49798002648356
 30
0.0
 10
26.00210776277824
 20
18.99431420377158
 30
0.0
 10
25.64572617379718
 20
15.1085692604238
 30
0.0
 10
25.5871746809928
 20
15.13967913676816
 30
0.0
 10
25.52862189648739
 20
15.17078901311189
 30
0.0
 10
25.47007040368333
 20
15.20189888945561
 30
0.0
 10
25.47007040368333
 20
15.20189888945561
 30
0.0
 10
25.4834730882636
 20
15.18824722729817
 30
0.0
 10
25.4834730882636
 20
15.18824722729817
 30
0.0
  0
SPLINE
  5
51
330
41
100
AcDbEntity
  8
Ebene 1
370
     0
100
AcDbSpline
210
0.0
220
0.0
230
1.0
 70
    11
 71
     3
 72
    32
 73
    28
 74
     0
 42
0.0000000001
 43
0.0000000001
 12
1.0
 22
0.0
 32
0.0
 13
1.0
 23
0.0
 33
0.0
 40
0.0
 40
0.0
 40
0.0
 40
0.0
 40
1.0
 40
1.0
 40
1.0
 40
2.0
 40
2.0
 40
2.0
 40
3.0
 40
3.0
 40
3.0
 40
4.0
 40
4.0
 40
4.0
 40
5.0
 40
5.0
 40
5.0
 40
6.0
 40
6.0
 40
6.0
 40
7.0
 40
7.0
 40
7.0
 40
8.0
 40
8.0
 40
8.0
 40
9.0
 40
9.0
 40
9.0
 40
9.0
 10
21.61766144290283
 20
19.42038262145541
 30
0.0
 10
22.46759095425634
 20
19.34386867971645
 30
0.0
 10
22.69569727635306
 20
19.89384567097865
 30
0.0
 10
23.17475620239404
 20
19.72919299873599
 30
0.0
 10
23.3488651412065
 20
19.04977320351234
 30
0.0
 10
22.61135076618179
 20
18.27059925679374
 30
0.0
 10
23.20467701167095
 20
18.13242015618066
 30
0.0
 10
24.26062061871816
 20
18.01308140488959
 30
0.0
 10
24.94308103142301
 20
17.61917905112395
 30
0.0
 10
25.63420249474074
 20
17.75567889801815
 30
0.0
 10
25.57126255477466
 20
18.62300698235673
 30
0.0
 10
24.57359772196589
 20
19.47557288876873
 30
0.0
 10
25.73437212676333
 20
19.40178657581251
 30
0.0
 10
27.4422481012636
 20
20.84032712486489
 30
0.0
 10
29.5226719394127
 20
20.24903546313406
 30
0.0
 10
31.19780892875668
 20
20.60558947190999
 30
0.0
 10
29.9196338063332
 20
20.74905527911773
 30
0.0
 10
28.67210686210743
 20
20.76266431621499
 30
0.0
 10
27.41817308330327
 20
20.63555363696903
 30
0.0
 10
29.49212962489029
 20
24.10715894437625
 30
0.0
 10
26.08517963556893
 20
27.84520854870965
 30
0.0
 10
22.67272937800594
 20
26.06055636390531
 30
0.0
 10
20.83342535816638
 20
24.57885756214485
 30
0.0
 10
20.60311344879951
 20
20.96528378514168
 30
0.0
 10
22.84185252558386
 20
19.93193309706773
 30
0.0
 10
22.11094714645918
 20
19.71413837443504
 30
0.0
 10
21.80039440511607
 20
19.72090099761294
 30
0.0
 10
21.61766144290283
 20
19.42038262145541
 30
0.0
  0
SPLINE
  5
52
330
41
100
AcDbEntity
  8
Ebene 1
370
     0
100
AcDbSpline
210
0.0
220
0.0
230
1.0
 70
    11
 71
     3
 72
    11
 73
     7
 74
     0
 42
0.0000000001
 43
0.0000000001
 12
1.0
 22
0.0
 32
0.0
 13
1.0
 23
0.0
 33
0.0
 40
0.0
 40
0.0
 40
0.0
 40
0.0
 40
1.0
 40
1.0
 40
1.0
 40
2.0
 40
2.0
 40
2.0
 40
2.0
 10
30.48585434470472
 20
22.08489247064767
 30
0.0
 10
29.45204603197969
 20
21.87741634999474
 30
0.0
 10
29.46067210205453
 20
21.6468943737961
 30
0.0
 10
30.04064676944835
 20
21.5079928864482
 30
0.0
 10
30.44103147649229
 20
21.81227776254303
 30
0.0
 10
30.75361246694936
 20
21.99575102512714
 30
0.0
 10
30.48585434470472
 20
22.08489247064767
 30
0.0
  0
SPLINE
  5
53
330
41
100
AcDbEntity
  8
Ebene 1
370
     0
100
AcDbSpline
210
0.0
220
0.0
230
1.0
 70
    11
 71
     3
 72
    14
 73
    10
 74
     0
 42
0.0000000001
 43
0.0000000001
 12
1.0
 22
0.0
 32
0.0
 13
1.0
 23
0.0
 33
0.0
 40
0.0
 40
0.0
 40
0.0
 40
0.0
 40
1.0
 40
1.0
 40
1.0
 40
2.0
 40
2.0
 40
2.0
 40
3.0
 40
3.0
 40
3.0
 40
3.0
 10
26.5709821342356
 20
28.02271836965317
 30
0.0
 10
26.40225057433656
 20
28.48138843566543
 30
0.0
 10
25.86390010050732
 20
28.5085836799651
 30
0.0
 10
25.78198378700759
 20
28.67363526501432
 30
0.0
 10
25.75712501052594
 20
28.63529138981803
 30
0.0
 10
25.73226494234422
 20
28.5969468687863
 30
0.0
 10
25.70740616586288
 20
28.55860234775586
 30
0.0
 10
26.25800107392219
 20
28.21671477199149
 30
0.0
 10
26.40227137053957
 20
28.12728259865389
 30
0.0
 10
26.5709821342356
 20
28.02271836965317
 30
0.0
  0
SPLINE
  5
54
330
41
100
AcDbEntity
  8
Ebene 1
370
     0
100
AcDbSpline
210
0.0
220
0.0
230
1.0
 70
    11
 71
     3
 72
    11
 73
     7
 74
     0
 42
0.0000000001
 43
0.0000000001
 12
1.0
 22
0.0
 32
0.0
 13
1.0
 23
0.0
 33
0.0
 40
0.0
 40
0.0
 40
0.0
 40
0.0
 40
1.0
 40
1.0
 40
1.0
 40
2.0
 40
2.0
 40
2.0
 40
2.0
 10
28.47944843829996
 20
26.03100465554013
 30
0.0
 10
28.04396446121407
 20
26.48824543450599
 30
0.0
 10
27.99193092082421
 20
26.79212086737442
 30
0.0
 10
27.80118941303919
 20
26.69119472330305
 30
0.0
 10
28.23628192351749
 20
26.23401396238738
 30
0.0
 10
28.28700401878666
 20
25.93159649453627
 30
0.0
 10
28.47944843829996
 20
26.03100465554013
 30
0.0
  0
SPLINE
  5
55
330
41
100
AcDbEntity
  8
Ebene 1
370
     0
100
AcDbSpline
210
0.0
220
0.0
230
1.0
 70
    11
 71
     3
 72
    14
 73
    10
 74
     0
 42
0.0000000001
 43
0.0000000001
 12
1.0
 22
0.0
 32
0.0
 13
1.0
 23
0.0
 33
0.0
 40
0.0
 40
0.0
 40
0.0
 40
0.0
 40
1.0
 40
1.0
 40
1.0
 40
2.0
 40
2.0
 40
2.0
 40
3.0
 40
3.0
 40
3.0
 40
3.0
 10
26.86871080873719
 20
27.72823021260475
 30
0.0
 10
27.08186206149784
 20
27.50296939114886
 30
0.0
 10
27.29501331425849
 20
27.27770856969297
 30
0.0
 10
27.50816456701914
 20
27.05244774823772
 30
0.0
 10
27.53629909601519
 20
27.08118805562842
 30
0.0
 10
27.56443233331053
 20
27.1099290088539
 30
0.0
 10
27.59256686230658
 20
27.13866996207875
 30
0.0
 10
27.13042652849615
 20
27.57132814414133
 30
0.0
 10
27.05728889672981
 20
27.87673092710573
 30
0.0
 10
26.86871080873719
 20
27.72823021260475
 30
0.0
  0
SPLINE
  5
56
330
41
100
AcDbEntity
  8
Ebene 1
370
     0
100
AcDbSpline
210
0.0
220
0.0
230
1.0
 70
    11
 71
     3
 72
    11
 73
     7
 74
     0
 42
0.0000000001
 43
0.0000000001
 12
1.0
 22
0.0
 32
0.0
 13
1.0
 23
0.0
 33
0.0
 40
0.0
 40
0.0
 40
0.0
 40
0.0
 40
1.0
 40
1.0
 40
1.0
 40
2.0
 40
2.0
 40
2.0
 40
2.0
 10
28.76643458438773
 20
25.48952618173698
 30
0.0
 10
28.87862420407848
 20
25.01860876210894
 30
0.0
 10
29.08840921808523
 20
24.65707185534586
 30
0.0
 10
29.2206094036841
 20
24.71697953734006
 30
0.0
 10
28.9507832439248
 20
25.22102131564175
 30
0.0
 10
28.96358089003754
 20
25.38472071815414
 30
0.0
 10
28.76643458438773
 20
25.48952618173698
 30
0.0
  0
SPLINE
  5
57
330
41
100
AcDbEntity
  8
Ebene 1
370
     0
100
AcDbSpline
210
0.0
220
0.0
230
1.0
 70
    11
 71
     3
 72
    35
 73
    31
 74
     0
 42
0.0000000001
 43
0.0000000001
 12
1.0
 22
0.0
 32
0.0
 13
1.0
 23
0.0
 33
0.0
 40
0.0
 40
0.0
 40
0.0
 40
0.0
 40
1.0
 40
1.0
 40
1.0
 40
2.0
 40
2.0
 40
2.0
 40
3.0
 40
3.0
 40
3.0
 40
4.0
 40
4.0
 40
4.0
 40
5.0
 40
5.0
 40
5.0
 40
6.0
 40
6.0
 40
6.0
 40
7.0
 40
7.0
 40
7.0
 40
8.0
 40
8.0
 40
8.0
 40
9.0
 40
9.0
 40
9.0
 40
10.0
 40
10.0
 40
10.0
 40
10.0
 10
25.58105828036091
 20
12.19380284984994
 30
0.0
 10
24.40574156133282
 20
14.60025487105556
 30
0.0
 10
30.56056659201255
 20
14.97327283828387
 30
0.0
 10
32.35458135729984
 20
13.05683355788079
 30
0.0
 10
33.40739573045166
 20
12.43227308885038
 30
0.0
 10
32.16320381349092
 20
12.26217727599172
 30
0.0
 10
31.80561929819403
 20
11.85171948918163
 30
0.0
 10
30.13002278851252
 20
10.89599408750869
 30
0.0
 10
30.33979721609643
 20
9.971760728095846
 30
0.0
 10
30.2981119894867
 20
8.501472057727325
 30
0.0
 10
30.32342983863836
 20
5.264837086241405
 30
0.0
 10
33.22693310741206
 20
5.701866736682455
 30
0.0
 10
34.99433795037032
 20
6.502866562527677
 30
0.0
 10
35.2826323278284
 20
5.337846805350353
 30
0.0
 10
32.61137447119759
 20
2.155848985649072
 30
0.0
 10
31.81481551467327
 20
3.149279209469038
 30
0.0
 10
32.09536399865021
 20
2.1464930847295
 30
0.0
 10
31.72050597320972
 20
1.246753677756134
 30
0.0
 10
30.90195201466533
 20
0.9945276060067234
 30
0.0
 10
30.12086384507739
 20
1.203962197406586
 30
0.0
 10
30.06368625924623
 20
2.385671661576992
 30
0.0
 10
29.47933042142659
 20
2.257753656446407
 30
0.0
 10
23.86234106500936
 20
0.8506637737162986
 30
0.0
 10
18.07472318331643
 20
8.861175535207382
 30
0.0
 10
24.71256296799902
 20
11.20817997775789
 30
0.0
 10
23.97260036930739
 20
11.86634427961915
 30
0.0
 10
23.40955116685922
 20
12.22715519089694
 30
0.0
 10
22.88516324364503
 20
12.66524336032828
 30
0.0
 10
23.82971761266231
 20
12.79044842664689
 30
0.0
 10
24.8431607608365
 20
12.16137647060771
 30
0.0
 10
25.58105828036091
 20
12.19380284984994
 30
0.0
  0
SPLINE
  5
58
330
41
100
AcDbEntity
  8
Ebene 1
370
     0
100
AcDbSpline
210
0.0
220
0.0
230
1.0
 70
    11
 71
     3
 72
    11
 73
     7
 74
     0
 42
0.0000000001
 43
0.0000000001
 12
1.0
 22
0.0
 32
0.0
 13
1.0
 23
0.0
 33
0.0
 40
0.0
 40
0.0
 40
0.0
 40
0.0
 40
1.0
 40
1.0
 40
1.0
 40
2.0
 40
2.0
 40
2.0
 40
2.0
 10
27.6731495059996
 20
12.6275259050298
 30
0.0
 10
24.47678657481253
 20
12.56911073542613
 30
0.0
 10
24.4540924785052
 20
7.911178707792586
 30
0.0
 10
27.50563929163107
 20
7.578772765814182
 30
0.0
 10
30.64358206045969
 20
7.630514247350434
 30
0.0
 10
31.04623507623593
 20
12.62132826388778
 30
0.0
 10
27.6731495059996
 20
12.6275259050298
 30
0.0
  0
SPLINE
  5
59
330
41
100
AcDbEntity
  8
Ebene 1
370
     0
100
AcDbSpline
210
0.0
220
0.0
230
1.0
 70
    11
 71
     3
 72
    11
 73
     7
 74
     0
 42
0.0000000001
 43
0.0000000001
 12
1.0
 22
0.0
 32
0.0
 13
1.0
 23
0.0
 33
0.0
 40
0.0
 40
0.0
 40
0.0
 40
0.0
 40
1.0
 40
1.0
 40
1.0
 40
2.0
 40
2.0
 40
2.0
 40
2.0
 10
33.79494332512309
 20
5.756505139035206
 30
0.0
 10
33.34859580885498
 20
5.822732277661543
 30
0.0
 10
32.42376281389057
 20
5.20817085855659
 30
0.0
 10
32.47439138374632
 20
4.991857057882847
 30
0.0
 10
32.91457579477203
 20
5.246739751600513
 30
0.0
 10
33.35476020579807
 20
5.501622445318181
 30
0.0
 10
33.79494332512309
 20
5.756505139035206
 30
0.0
  0
SPLINE
  5
5A
330
41
100
AcDbEntity
  8
Ebene 1
370
     0
100
AcDbSpline
210
0.0
220
0.0
230
1.0
 70
    11
 71
     3
 72
    11
 73
     7
 74
     0
 42
0.0000000001
 43
0.0000000001
 12
1.0
 22
0.0
 32
0.0
 13
1.0
 23
0.0
 33
0.0
 40
0.0
 40
0.0
 40
0.0
 40
0.0
 40
1.0
 40
1.0
 40
1.0
 40
2.0
 40
2.0
 40
2.0
 40
2.0
 10
36.68556835473957
 20
9.513437457599593
 30
0.0
 10
36.54304411166576
 20
6.047425425144463
 30
0.0
 10
31.20346405234729
 20
5.092509187476741
 30
0.0
 10
31.04346880009059
 20
9.349802419360506
 30
0.0
 10
31.08363355822109
 20
13.24026173503947
 30
0.0
 10
36.43266736017998
 20
13.5849001956928
 30
0.0
 10
36.68556835473957
 20
9.513437457599593
 30
0.0
  0
SPLINE
  5
5B
330
41
100
AcDbEntity
  8
Ebene 1
370
     0
100
AcDbSpline
210
0.0
220
0.0
230
1.0
 70
    11
 71
     3
 72
    11
 73
     7
 74
     0
 42
0.0000000001
 43
0.0000000001
 12
1.0
 22
0.0
 32
0.0
 13
1.0
 23
0.0
 33
0.0
 40
0.0
 40
0.0
 40
0.0
 40
0.0
 40
1.0
 40
1.0
 40
1.0
 40
2.0
 40
2.0
 40
2.0
 40
2.0
 10
32.61491125873741
 20
8.105454507871032
 30
0.0
 10
35.71941344912504
 20
6.517885013959873
 30
0.0
 10
32.87642383232586
 20
12.69511406344562
 30
0.0
 10
32.04572764986049
 20
9.519853382158036
 30
0.0
 10
32.10192020381579
 20
8.864724597939357
 30
0.0
 10
32.39223695980672
 20
8.38036460993054
 30
0.0
 10
32.61491125873741
 20
8.105454507871032
 30
0.0
  0
SPLINE
  5
5C
330
41
100
AcDbEntity
  8
Ebene 1
370
     0
100
AcDbSpline
210
0.0
220
0.0
230
1.0
 70
    11
 71
     3
 72
    11
 73
     7
 74
     0
 42
0.0000000001
 43
0.0000000001
 12
1.0
 22
0.0
 32
0.0
 13
1.0
 23
0.0
 33
0.0
 40
0.0
 40
0.0
 40
0.0
 40
0.0
 40
1.0
 40
1.0
 40
1.0
 40
2.0
 40
2.0
 40
2.0
 40
2.0
 10
34.8274368958982
 20
11.58313099461073
 30
0.0
 10
33.98020518863103
 20
10.67970416352253
 30
0.0
 10
36.01621719174721
 20
8.281383471579773
 30
0.0
 10
36.08352017757689
 20
10.04356105739914
 30
0.0
 10
36.03975313861579
 20
10.75996064465913
 30
0.0
 10
35.43523130424593
 20
11.67724122022425
 30
0.0
 10
34.8274368958982
 20
11.58313099461073
 30
0.0
  0
SPLINE
  5
5D
330
41
100
AcDbEntity
  8
Ebene 1
370
     0
100
AcDbSpline
210
0.0
220
0.0
230
1.0
 70
    11
 71
     3
 72
    14
 73
    10
 74
     0
 42
0.0000000001
 43
0.0000000001
 12
1.0
 22
0.0
 32
0.0
 13
1.0
 23
0.0
 33
0.0
 40
0.0
 40
0.0
 40
0.0
 40
0.0
 40
1.0
 40
1.0
 40
1.0
 40
2.0
 40
2.0
 40
2.0
 40
3.0
 40
3.0
 40
3.0
 40
3.0
 10
33.92812539962169
 20
24.28797324446352
 30
0.0
 10
33.87814814759259
 20
25.86123538254057
 30
0.0
 10
32.06981796475129
 20
27.45106224168455
 30
0.0
 10
30.39386793968496
 20
26.69393596055561
 30
0.0
 10
30.48264966379782
 20
25.38751232295724
 30
0.0
 10
31.91922091077341
 20
23.61676680831615
 30
0.0
 10
31.86119174010559
 20
21.66878789475152
 30
0.0
 10
32.97584098994351
 20
21.72960833077872
 30
0.0
 10
33.85369841372495
 20
22.89009513181054
 30
0.0
 10
33.92812539962169
 20
24.28797324446352
 30
0.0
  0
SPLINE
  5
5E
330
41
100
AcDbEntity
  8
Ebene 1
370
     0
100
AcDbSpline
210
0.0
220
0.0
230
1.0
 70
    11
 71
     3
 72
    14
 73
    10
 74
     0
 42
0.0000000001
 43
0.0000000001
 12
1.0
 22
0.0
 32
0.0
 13
1.0
 23
0.0
 33
0.0
 40
0.0
 40
0.0
 40
0.0
 40
0.0
 40
1.0
 40
1.0
 40
1.0
 40
2.0
 40
2.0
 40
2.0
 40
3.0
 40
3.0
 40
3.0
 40
3.0
 10
32.52887918715651
 20
14.69663238890905
 30
0.0
 10
32.29961104320779
 20
14.75180774821061
 30
0.0
 10
31.08154843329125
 20
14.46417972177392
 30
0.0
 10
31.40973521582597
 20
13.93941645927549
 30
0.0
 10
32.11572959286573
 20
13.83214402719658
 30
0.0
 10
32.72041574650285
 20
12.38975475895942
 30
0.0
 10
33.80912035339541
 20
12.81820063099942
 30
0.0
 10
35.27405168901016
 20
12.690304478603
 30
0.0
 10
33.67557095600061
 20
14.94001889169193
 30
0.0
 10
32.52887918715651
 20
14.69663238890905
 30
0.0
  0
SPLINE
  5
5F
330
41
100
AcDbEntity
  8
Ebene 1
370
     0
100
AcDbSpline
210
0.0
220
0.0
230
1.0
 70
    11
 71
     3
 72
    11
 73
     7
 74
     0
 42
0.0000000001
 43
0.0000000001
 12
1.0
 22
0.0
 32
0.0
 13
1.0
 23
0.0
 33
0.0
 40
0.0
 40
0.0
 40
0.0
 40
0.0
 40
1.0
 40
1.0
 40
1.0
 40
2.0
 40
2.0
 40
2.0
 40
2.0
 10
34.15076290009798
 20
4.180259348809209
 30
0.0
 10
33.97777330827437
 20
3.857573117183594
 30
0.0
 10
32.89796725922847
 20
3.492420833388754
 30
0.0
 10
33.13570692295297
 20
2.855279553247179
 30
0.0
 10
33.72860747407397
 20
2.111733847427213
 30
0.0
 10
34.47097060659488
 20
2.878995892780242
 30
0.0
 10
34.15076290009798
 20
4.180259348809209
 30
0.0
  0
SPLINE
  5
60
330
41
100
AcDbEntity
  8
Ebene 1
370
     0
100
AcDbSpline
210
0.0
220
0.0
230
1.0
 70
    11
 71
     3
 72
    11
 73
     7
 74
     0
 42
0.0000000001
 43
0.0000000001
 12
1.0
 22
0.0
 32
0.0
 13
1.0
 23
0.0
 33
0.0
 40
0.0
 40
0.0
 40
0.0
 40
0.0
 40
1.0
 40
1.0
 40
1.0
 40
2.0
 40
2.0
 40
2.0
 40
2.0
 10
30.36433658552466
 20
15.4780592658859
 30
0.0
 10
30.28004289512023
 20
15.32648767716931
 30
0.0
 10
30.12187835318687
 20
15.03534721641732
 30
0.0
 10
29.90845930486751
 20
14.52542796471118
 30
0.0
 10
30.66213968487184
 20
14.18696745830777
 30
0.0
 10
30.88090059825341
 20
14.36046118704208
 30
0.0
 10
30.36433658552466
 20
15.4780592658859
 30
0.0
  0
SPLINE
  5
61
330
41
100
AcDbEntity
  8
Ebene 1
370
     0
100
AcDbSpline
210
0.0
220
0.0
230
1.0
 70
    11
 71
     3
 72
    14
 73
    10
 74
     0
 42
0.0000000001
 43
0.0000000001
 12
1.0
 22
0.0
 32
0.0
 13
1.0
 23
0.0
 33
0.0
 40
0.0
 40
0.0
 40
0.0
 40
0.0
 40
1.0
 40
1.0
 40
1.0
 40
2.0
 40
2.0
 40
2.0
 40
3.0
 40
3.0
 40
3.0
 40
3.0
 10
25.4834730882636
 20
15.18824722729817
 30
0.0
 10
25.37608741703079
 20
15.22447112727064
 30
0.0
 10
25.44148583429542
 20
15.39808364959247
 30
0.0
 10
24.95332819465233
 20
15.59462991674319
 30
0.0
 10
24.58573303909305
 20
15.13548847603356
 30
0.0
 10
25.93077563008339
 20
13.79867286577432
 30
0.0
 10
25.47007040368333
 20
15.20189888945561
 30
0.0
 10
25.47007040368333
 20
15.20189888945561
 30
0.0
 10
25.4834730882636
 20
15.18824722729817
 30
0.0
 10
25.4834730882636
 20
15.18824722729817
 30
0.0
  0
SPLINE
  5
62
330
41
100
AcDbEntity
  8
Ebene 1
370
     0
100
AcDbSpline
210
0.0
220
0.0
230
1.0
 70
    11
 71
     3
 72
    11
 73
     7
 74
     0
 42
0.0000000001
 43
0.0000000001
 12
1.0
 22
0.0
 32
0.0
 13
1.0
 23
0.0
 33
0.0
 40
0.0
 40
0.0
 40
0.0
 40
0.0
 40
1.0
 40
1.0
 40
1.0
 40
2.0
 40
2.0
 40
2.0
 40
2.0
 10
28.17449602852504
 20
0.4110572567670447
 30
0.0
 10
27.76112412596019
 20
0.2571837110705275
 30
0.0
 10
27.63729156897601
 20
0.2306606653190069
 30
0.0
 10
27.6022881991675
 20
-0.5205753622484935
 30
0.0
 10
27.81241671980526
 20
-0.4280329924786645
 30
0.0
 10
28.41337699721761
 20
-0.1114416105148853
 30
0.0
 10
28.17449602852504
 20
0.4110572567670447
 30
0.0
  0
SPLINE
  5
63
330
41
100
AcDbEntity
  8
Ebene 1
370
     0
100
AcDbSpline
210
0.0
220
0.0
230
1.0
 70
    11
 71
     3
 72
    11
 73
     7
 74
     0
 42
0.0000000001
 43
0.0000000001
 12
1.0
 22
0.0
 32
0.0
 13
1.0
 23
0.0
 33
0.0
 40
0.0
 40
0.0
 40
0.0
 40
0.0
 40
1.0
 40
1.0
 40
1.0
 40
2.0
 40
2.0
 40
2.0
 40
2.0
 10
25.56469004934333
 20
-0.9631790668322325
 30
0.0
 10
26.05035591211031
 20
-1.114309449650951
 30
0.0
 10
26.74130043750755
 20
-0.731058309014617
 30
0.0
 10
26.78301035319264
 20
0.1156884528974841
 30
0.0
 10
26.38651040875966
 20
-0.1362054352638947
 30
0.0
 10
26.27006640850717
 20
-0.6848783283438105
 30
0.0
 10
25.56469004934333
 20
-0.9631790668322325
 30
0.0
  0
SPLINE
  5
64
330
41
100
AcDbEntity
  8
Ebene 1
370
     0
100
AcDbSpline
210
0.0
220
0.0
230
1.0
 70
    11
 71
     3
 72
    32
 73
    28
 74
     0
 42
0.0000000001
 43
0.0000000001
 12
1.0
 22
0.0
 32
0.0
 13
1.0
 23
0.0
 33
0.0
 40
0.0
 40
0.0
 40
0.0
 40
0.0
 40
1.0
 40
1.0
 40
1.0
 40
2.0
 40
2.0
 40
2.0
 40
3.0
 40
3.0
 40
3.0
 40
4.0
 40
4.0
 40
4.0
 40
5.0
 40
5.0
 40
5.0
 40
6.0
 40
6.0
 40
6.0
 40
7.0
 40
7.0
 40
7.0
 40
8.0
 40
8.0
 40
8.0
 40
9.0
 40
9.0
 40
9.0
 40
9.0
 10
22.49144062175846
 20
25.99052404335523
 30
0.0
 10
26.20645754675754
 20
27.96090434200693
 30
0.0
 10
29.50046952080389
 20
23.86862117508972
 30
0.0
 10
27.41817308330327
 20
20.63555363696903
 30
0.0
 10
28.67210686210743
 20
20.76266431621499
 30
0.0
 10
29.9196338063332
 20
20.74905527911773
 30
0.0
 10
31.19780892875668
 20
20.60558947190999
 30
0.0
 10
29.56025225460609
 20
20.07456256004095
 30
0.0
 10
27.62800013343134
 20
21.06806042036103
 30
0.0
 10
26.41391050067367
 20
19.69379688305949
 30
0.0
 10
24.70998643895425
 20
19.21009692019136
 30
0.0
 10
25.22799577430776
 20
19.10708092761241
 30
0.0
 10
25.61397084407519
 20
17.95967875500937
 30
0.0
 10
25.32258600723284
 20
17.31681146043119
 30
0.0
 10
23.60838042043699
 20
18.24548985717442
 30
0.0
 10
23.20435335882482
 20
18.13243018360471
 30
0.0
 10
22.61030739806357
 20
18.41688815420688
 30
0.0
 10
23.36617741610833
 20
19.23904840808572
 30
0.0
 10
23.21659445057677
 20
19.60733091876349
 30
0.0
 10
22.93250295380897
 20
20.00772174910372
 30
0.0
 10
21.86540996970583
 20
19.19073631765199
 30
0.0
 10
21.61766144290283
 20
19.42038391312563
 30
0.0
 10
22.03927291646131
 20
19.93863865572307
 30
0.0
 10
22.57458686877496
 20
19.7484746010707
 30
0.0
 10
22.84185252558386
 20
19.93193309706773
 30
0.0
 10
20.40210561085347
 20
21.18559359549043
 30
0.0
 10
21.04946385785811
 20
24.52448825980977
 30
0.0
 10
22.49144062175846
 20
25.99052404335523
 30
0.0
  0
SPLINE
  5
65
330
41
100
AcDbEntity
  8
Ebene 1
370
     0
100
AcDbSpline
210
0.0
220
0.0
230
1.0
 70
    11
 71
     3
 72
    11
 73
     7
 74
     0
 42
0.0000000001
 43
0.0000000001
 12
1.0
 22
0.0
 32
0.0
 13
1.0
 23
0.0
 33
0.0
 40
0.0
 40
0.0
 40
0.0
 40
0.0
 40
1.0
 40
1.0
 40
1.0
 40
2.0
 40
2.0
 40
2.0
 40
2.0
 10
24.86527017284876
 20
26.13548168350074
 30
0.0
 10
20.36638171105541
 20
26.13834338554395
 30
0.0
 10
20.7364567917305
 20
19.80122980163677
 30
0.0
 10
24.78065366951518
 20
19.69324923899948
 30
0.0
 10
28.75964494384245
 20
19.74551150137152
 30
0.0
 10
28.55697786065453
 20
25.97048827424345
 30
0.0
 10
24.86527017284876
 20
26.13548168350074
 30
0.0
  0
SPLINE
  5
66
330
41
100
AcDbEntity
  8
Ebene 1
370
     0
100
AcDbSpline
210
0.0
220
0.0
230
1.0
 70
    11
 71
     3
 72
    11
 73
     7
 74
     0
 42
0.0000000001
 43
0.0000000001
 12
1.0
 22
0.0
 32
0.0
 13
1.0
 23
0.0
 33
0.0
 40
0.0
 40
0.0
 40
0.0
 40
0.0
 40
1.0
 40
1.0
 40
1.0
 40
2.0
 40
2.0
 40
2.0
 40
2.0
 10
24.76937148299457
 20
19.06142476181323
 30
0.0
 10
24.01415090518977
 20
19.00413128384252
 30
0.0
 10
24.7839579468526
 20
17.87102741106896
 30
0.0
 10
25.22681994555694
 20
18.04766271837173
 30
0.0
 10
24.99194551540407
 20
18.68797268074098
 30
0.0
 10
25.06091660009257
 20
18.89069002631844
 30
0.0
 10
24.76937148299457
 20
19.06142476181323
 30
0.0
  0
HATCH
  5
67
330
41
100
AcDbEntity
  8
Ebene 1
 62
     7
420
 16777215
100
AcDbHatch
 10
0.0
 20
0.0
 30
0.0
210
0.0
220
0.0
230
1.0
  2
SOLID
 70
     1
 71
     0
 91
        3
 92
        1
 93
        1
 72
     4
 94
        3
 73
     0
 74
     1
 95
       32
 96
       28
 40
0.0
 40
0.0
 40
0.0
 40
0.0
 40
1.0
 40
1.0
 40
1.0
 40
2.0
 40
2.0
 40
2.0
 40
3.0
 40
3.0
 40
3.0
 40
4.0
 40
4.0
 40
4.0
 40
5.0
 40
5.0
 40
5.0
 40
6.0
 40
6.0
 40
6.0
 40
7.0
 40
7.0
 40
7.0
 40
8.0
 40
8.0
 40
8.0
 40
9.0
 40
9.0
 40
9.0
 40
9.0
 10
22.49144062175846
 20
25.99052404335523
 10
26.20645754675754
 20
27.96090434200693
 10
29.50046952080389
 20
23.86862117508972
 10
27.41817308330327
 20
20.63555363696903
 10
28.67210686210743
 20
20.76266431621499
 10
29.9196338063332
 20
20.74905527911773
 10
31.19780892875668
 20
20.60558947190999
 10
29.56025225460609
 20
20.07456256004095
 10
27.62800013343134
 20
21.06806042036103
 10
26.41391050067367
 20
19.69379688305949
 10
24.70998643895425
 20
19.21009692019136
 10
25.22799577430776
 20
19.10708092761241
 10
25.61397084407519
 20
17.95967875500937
 10
25.32258600723284
 20
17.31681146043119
 10
23.60838042043699
 20
18.24548985717442
 10
23.20435335882482
 20
18.13243018360471
 10
22.61030739806357
 20
18.41688815420688
 10
23.36617741610833
 20
19.23904840808572
 10
23.21659445057677
 20
19.60733091876349
 10
22.93250295380897
 20
20.00772174910372
 10
21.86540996970583
 20
19.19073631765199
 10
21.61766144290283
 20
19.42038391312563
 10
22.03927291646131
 20
19.93863865572307
 10
22.57458686877496
 20
19.7484746010707
 10
22.84185252558386
 20
19.93193309706773
 10
20.40210561085347
 20
21.18559359549043
 10
21.04946385785811
 20
24.52448825980977
 10
22.49144062175846
 20
25.99052404335523
 97
        0
 97
        0
 92
        1
 93
        1
 72
     4
 94
        3
 73
     0
 74
     1
 95
       11
 96
        7
 40
0.0
 40
0.0
 40
0.0
 40
0.0
 40
1.0
 40
1.0
 40
1.0
 40
2.0
 40
2.0
 40
2.0
 40
2.0
 10
24.86527017284876
 20
26.13548168350074
 10
20.36638171105541
 20
26.13834338554395
 10
20.7364567917305
 20
19.80122980163677
 10
24.78065366951518
 20
19.69324923899948
 10
28.75964494384245
 20
19.74551150137152
 10
28.55697786065453
 20
25.97048827424345
 10
24.86527017284876
 20
26.13548168350074
 97
        0
 97
        0
 92
        1
 93
        1
 72
     4
 94
        3
 73
     0
 74
     1
 95
       11
 96
        7
 40
0.0
 40
0.0
 40
0.0
 40
0.0
 40
1.0
 40
1.0
 40
1.0
 40
2.0
 40
2.0
 40
2.0
 40
2.0
 10
24.76937148299457
 20
19.06142476181323
 10
24.01415090518977
 20
19.00413128384252
 10
24.7839579468526
 20
17.87102741106896
 10
25.22681994555694
 20
18.04766271837173
 10
24.99194551540407
 20
18.68797268074098
 10
25.06091660009257
 20
18.89069002631844
 10
24.76937148299457
 20
19.06142476181323
 97
        0
 97
        0
 75
     2
 76
     1
 98
        0
  0
SPLINE
  5
68
330
41
100
AcDbEntity
  8
Ebene 1
370
     0
100
AcDbSpline
210
0.0
220
0.0
230
1.0
 70
    11
 71
     3
 72
    11
 73
     7
 74
     0
 42
0.0000000001
 43
0.0000000001
 12
1.0
 22
0.0
 32
0.0
 13
1.0
 23
0.0
 33
0.0
 40
0.0
 40
0.0
 40
0.0
 40
0.0
 40
1.0
 40
1.0
 40
1.0
 40
2.0
 40
2.0
 40
2.0
 40
2.0
 10
30.04064676944835
 20
21.5079928864482
 30
0.0
 10
30.33321233883564
 20
21.69014849021116
 30
0.0
 10
31.20241511644939
 20
22.39636268677614
 30
0.0
 10
29.63973841716497
 20
21.84026480378126
 30
0.0
 10
29.59171371990632
 20
21.68499730863056
 30
0.0
 10
29.66411211593087
 20
21.5973962873016
 30
0.0
 10
30.04064676944835
 20
21.5079928864482
 30
0.0
  0
HATCH
  5
69
330
41
100
AcDbEntity
  8
Ebene 1
 62
     7
420
 16777215
100
AcDbHatch
 10
0.0
 20
0.0
 30
0.0
210
0.0
220
0.0
230
1.0
  2
SOLID
 70
     1
 71
     0
 91
        1
 92
        1
 93
        1
 72
     4
 94
        3
 73
     0
 74
     1
 95
       11
 96
        7
 40
0.0
 40
0.0
 40
0.0
 40
0.0
 40
1.0
 40
1.0
 40
1.0
 40
2.0
 40
2.0
 40
2.0
 40
2.0
 10
30.04064676944835
 20
21.5079928864482
 10
30.33321233883564
 20
21.69014849021116
 10
31.20241511644939
 20
22.39636268677614
 10
29.63973841716497
 20
21.84026480378126
 10
29.59171371990632
 20
21.68499730863056
 10
29.66411211593087
 20
21.5973962873016
 10
30.04064676944835
 20
21.5079928864482
 97
        0
 97
        0
 75
     2
 76
     1
 98
        0
  0
SPLINE
  5
6A
330
41
100
AcDbEntity
  8
Ebene 1
370
     0
100
AcDbSpline
210
0.0
220
0.0
230
1.0
 70
    11
 71
     3
 72
    14
 73
    10
 74
     0
 42
0.0000000001
 43
0.0000000001
 12
1.0
 22
0.0
 32
0.0
 13
1.0
 23
0.0
 33
0.0
 40
0.0
 40
0.0
 40
0.0
 40
0.0
 40
1.0
 40
1.0
 40
1.0
 40
2.0
 40
2.0
 40
2.0
 40
3.0
 40
3.0
 40
3.0
 40
3.0
 10
25.70740616586288
 20
28.55860234775586
 30
0.0
 10
25.89217586707147
 20
28.55218931097978
 30
0.0
 10
26.13817241293249
 20
28.07560952481102
 30
0.0
 10
26.62845314221961
 20
28.11067365652628
 30
0.0
 10
26.46320137145753
 20
28.22070747897758
 30
0.0
 10
26.32187488866325
 20
28.31479470732639
 30
0.0
 10
25.78198378700759
 20
28.67363526501432
 30
0.0
 10
25.75712501052594
 20
28.63529138981803
 30
0.0
 10
25.73226494234422
 20
28.5969468687863
 30
0.0
 10
25.70740616586288
 20
28.55860234775586
 30
0.0
  0
HATCH
  5
6B
330
41
100
AcDbEntity
  8
Ebene 1
 62
     7
420
 16777215
100
AcDbHatch
 10
0.0
 20
0.0
 30
0.0
210
0.0
220
0.0
230
1.0
  2
SOLID
 70
     1
 71
     0
 91
        1
 92
        1
 93
        1
 72
     4
 94
        3
 73
     0
 74
     1
 95
       14
 96
       10
 40
0.0
 40
0.0
 40
0.0
 40
0.0
 40
1.0
 40
1.0
 40
1.0
 40
2.0
 40
2.0
 40
2.0
 40
3.0
 40
3.0
 40
3.0
 40
3.0
 10
25.70740616586288
 20
28.55860234775586
 10
25.89217586707147
 20
28.55218931097978
 10
26.13817241293249
 20
28.07560952481102
 10
26.62845314221961
 20
28.11067365652628
 10
26.46320137145753
 20
28.22070747897758
 10
26.32187488866325
 20
28.31479470732639
 10
25.78198378700759
 20
28.67363526501432
 10
25.75712501052594
 20
28.63529138981803
 10
25.73226494234422
 20
28.5969468687863
 10
25.70740616586288
 20
28.55860234775586
 97
        0
 97
        0
 75
     2
 76
     1
 98
        0
  0
SPLINE
  5
6C
330
41
100
AcDbEntity
  8
Ebene 1
370
     0
100
AcDbSpline
210
0.0
220
0.0
230
1.0
 70
    11
 71
     3
 72
    11
 73
     7
 74
     0
 42
0.0000000001
 43
0.0000000001
 12
1.0
 22
0.0
 32
0.0
 13
1.0
 23
0.0
 33
0.0
 40
0.0
 40
0.0
 40
0.0
 40
0.0
 40
1.0
 40
1.0
 40
1.0
 40
2.0
 40
2.0
 40
2.0
 40
2.0
 10
27.80118941303919
 20
26.69119472330305
 30
0.0
 10
27.96082421522228
 20
26.63600871625211
 30
0.0
 10
28.04059194345207
 20
26.12686994639961
 30
0.0
 10
28.47944843829996
 20
26.03100465554013
 30
0.0
 10
28.31994826311611
 20
26.08613123577798
 30
0.0
 10
28.23885934003749
 20
26.59596153309764
 30
0.0
 10
27.80118941303919
 20
26.69119472330305
 30
0.0
  0
HATCH
  5
6D
330
41
100
AcDbEntity
  8
Ebene 1
 62
     7
420
 16777215
100
AcDbHatch
 10
0.0
 20
0.0
 30
0.0
210
0.0
220
0.0
230
1.0
  2
SOLID
 70
     1
 71
     0
 91
        1
 92
        1
 93
        1
 72
     4
 94
        3
 73
     0
 74
     1
 95
       11
 96
        7
 40
0.0
 40
0.0
 40
0.0
 40
0.0
 40
1.0
 40
1.0
 40
1.0
 40
2.0
 40
2.0
 40
2.0
 40
2.0
 10
27.80118941303919
 20
26.69119472330305
 10
27.96082421522228
 20
26.63600871625211
 10
28.04059194345207
 20
26.12686994639961
 10
28.47944843829996
 20
26.03100465554013
 10
28.31994826311611
 20
26.08613123577798
 10
28.23885934003749
 20
26.59596153309764
 10
27.80118941303919
 20
26.69119472330305
 97
        0
 97
        0
 75
     2
 76
     1
 98
        0
  0
SPLINE
  5
6E
330
41
100
AcDbEntity
  8
Ebene 1
370
     0
100
AcDbSpline
210
0.0
220
0.0
230
1.0
 70
    11
 71
     3
 72
    14
 73
    10
 74
     0
 42
0.0000000001
 43
0.0000000001
 12
1.0
 22
0.0
 32
0.0
 13
1.0
 23
0.0
 33
0.0
 40
0.0
 40
0.0
 40
0.0
 40
0.0
 40
1.0
 40
1.0
 40
1.0
 40
2.0
 40
2.0
 40
2.0
 40
3.0
 40
3.0
 40
3.0
 40
3.0
 10
27.59256686230658
 20
27.13866996207875
 30
0.0
 10
27.43477341061293
 20
27.15962273036171
 30
0.0
 10
27.29710561437502
 20
27.75294807851627
 30
0.0
 10
26.86871080873719
 20
27.72823021260475
 30
0.0
 10
27.08186206149784
 20
27.50296939114886
 30
0.0
 10
27.29501331425849
 20
27.27770856969297
 30
0.0
 10
27.50816456701914
 20
27.05244774823772
 30
0.0
 10
27.53629909601519
 20
27.08118805562842
 30
0.0
 10
27.56443233331053
 20
27.1099290088539
 30
0.0
 10
27.59256686230658
 20
27.13866996207875
 30
0.0
  0
HATCH
  5
6F
330
41
100
AcDbEntity
  8
Ebene 1
 62
     7
420
 16777215
100
AcDbHatch
 10
0.0
 20
0.0
 30
0.0
210
0.0
220
0.0
230
1.0
  2
SOLID
 70
     1
 71
     0
 91
        1
 92
        1
 93
        1
 72
     4
 94
        3
 73
     0
 74
     1
 95
       14
 96
       10
 40
0.0
 40
0.0
 40
0.0
 40
0.0
 40
1.0
 40
1.0
 40
1.0
 40
2.0
 40
2.0
 40
2.0
 40
3.0
 40
3.0
 40
3.0
 40
3.0
 10
27.59256686230658
 20
27.13866996207875
 10
27.43477341061293
 20
27.15962273036171
 10
27.29710561437502
 20
27.75294807851627
 10
26.86871080873719
 20
27.72823021260475
 10
27.08186206149784
 20
27.50296939114886
 10
27.29501331425849
 20
27.27770856969297
 10
27.50816456701914
 20
27.05244774823772
 10
27.53629909601519
 20
27.08118805562842
 10
27.56443233331053
 20
27.1099290088539
 10
27.59256686230658
 20
27.13866996207875
 97
        0
 97
        0
 75
     2
 76
     1
 98
        0
  0
SPLINE
  5
70
330
41
100
AcDbEntity
  8
Ebene 1
370
     0
100
AcDbSpline
210
0.0
220
0.0
230
1.0
 70
    11
 71
     3
 72
    11
 73
     7
 74
     0
 42
0.0000000001
 43
0.0000000001
 12
1.0
 22
0.0
 32
0.0
 13
1.0
 23
0.0
 33
0.0
 40
0.0
 40
0.0
 40
0.0
 40
0.0
 40
1.0
 40
1.0
 40
1.0
 40
2.0
 40
2.0
 40
2.0
 40
2.0
 10
29.2206094036841
 20
24.71697953734006
 30
0.0
 10
29.09953061496597
 20
24.83789364079466
 30
0.0
 10
29.13076955172346
 20
25.15928588077584
 30
0.0
 10
28.76643458438773
 20
25.48952618173698
 30
0.0
 10
28.79197271994236
 20
25.34819493745625
 30
0.0
 10
28.88857046151894
 20
24.84443775081248
 30
0.0
 10
29.2206094036841
 20
24.71697953734006
 30
0.0
  0
HATCH
  5
71
330
41
100
AcDbEntity
  8
Ebene 1
 62
     7
420
 16777215
100
AcDbHatch
 10
0.0
 20
0.0
 30
0.0
210
0.0
220
0.0
230
1.0
  2
SOLID
 70
     1
 71
     0
 91
        1
 92
        1
 93
        1
 72
     4
 94
        3
 73
     0
 74
     1
 95
       11
 96
        7
 40
0.0
 40
0.0
 40
0.0
 40
0.0
 40
1.0
 40
1.0
 40
1.0
 40
2.0
 40
2.0
 40
2.0
 40
2.0
 10
29.2206094036841
 20
24.71697953734006
 10
29.09953061496597
 20
24.83789364079466
 10
29.13076955172346
 20
25.15928588077584
 10
28.76643458438773
 20
25.48952618173698
 10
28.79197271994236
 20
25.34819493745625
 10
28.88857046151894
 20
24.84443775081248
 10
29.2206094036841
 20
24.71697953734006
 97
        0
 97
        0
 75
     2
 76
     1
 98
        0
  0
SPLINE
  5
72
330
41
100
AcDbEntity
  8
Ebene 1
370
     0
100
AcDbSpline
210
0.0
220
0.0
230
1.0
 70
    11
 71
     3
 72
    11
 73
     7
 74
     0
 42
0.0000000001
 43
0.0000000001
 12
1.0
 22
0.0
 32
0.0
 13
1.0
 23
0.0
 33
0.0
 40
0.0
 40
0.0
 40
0.0
 40
0.0
 40
1.0
 40
1.0
 40
1.0
 40
2.0
 40
2.0
 40
2.0
 40
2.0
 10
28.03434914307287
 20
12.60269678833207
 30
0.0
 10
30.99988626800051
 20
12.02802730917463
 30
0.0
 10
30.57163843302851
 20
7.721722409237678
 30
0.0
 10
27.50563929163107
 20
7.578772765814182
 30
0.0
 10
24.24108784210555
 20
8.058771998024763
 30
0.0
 10
24.51549666864878
 20
12.87170715866453
 30
0.0
 10
28.03434914307287
 20
12.60269678833207
 30
0.0
  0
SPLINE
  5
73
330
41
100
AcDbEntity
  8
Ebene 1
370
     0
100
AcDbSpline
210
0.0
220
0.0
230
1.0
 70
    11
 71
     3
 72
    11
 73
     7
 74
     0
 42
0.0000000001
 43
0.0000000001
 12
1.0
 22
0.0
 32
0.0
 13
1.0
 23
0.0
 33
0.0
 40
0.0
 40
0.0
 40
0.0
 40
0.0
 40
1.0
 40
1.0
 40
1.0
 40
2.0
 40
2.0
 40
2.0
 40
2.0
 10
27.73144638658466
 20
7.813581107361812
 30
0.0
 10
30.48434395091357
 20
8.15897994261439
 30
0.0
 10
30.55264908809903
 20
12.31259869633386
 30
0.0
 10
27.58082013712836
 20
12.38707960301342
 30
0.0
 10
24.62231545938938
 20
12.30104655589596
 30
0.0
 10
24.88249683314163
 20
7.789579312277718
 30
0.0
 10
27.73144638658466
 20
7.813581107361812
 30
0.0
  0
HATCH
  5
74
330
41
100
AcDbEntity
  8
Ebene 1
 62
     7
420
 16777215
100
AcDbHatch
 10
0.0
 20
0.0
 30
0.0
210
0.0
220
0.0
230
1.0
  2
SOLID
 70
     1
 71
     0
 91
        2
 92
        1
 93
        1
 72
     4
 94
        3
 73
     0
 74
     1
 95
       11
 96
        7
 40
0.0
 40
0.0
 40
0.0
 40
0.0
 40
1.0
 40
1.0
 40
1.0
 40
2.0
 40
2.0
 40
2.0
 40
2.0
 10
28.03434914307287
 20
12.60269678833207
 10
30.99988626800051
 20
12.02802730917463
 10
30.57163843302851
 20
7.721722409237678
 10
27.50563929163107
 20
7.578772765814182
 10
24.24108784210555
 20
8.058771998024763
 10
24.51549666864878
 20
12.87170715866453
 10
28.03434914307287
 20
12.60269678833207
 97
        0
 97
        0
 92
        1
 93
        1
 72
     4
 94
        3
 73
     0
 74
     1
 95
       11
 96
        7
 40
0.0
 40
0.0
 40
0.0
 40
0.0
 40
1.0
 40
1.0
 40
1.0
 40
2.0
 40
2.0
 40
2.0
 40
2.0
 10
27.73144638658466
 20
7.813581107361812
 10
30.48434395091357
 20
8.15897994261439
 10
30.55264908809903
 20
12.31259869633386
 10
27.58082013712836
 20
12.38707960301342
 10
24.62231545938938
 20
12.30104655589596
 10
24.88249683314163
 20
7.789579312277718
 10
27.73144638658466
 20
7.813581107361812
 97
        0
 97
        0
 75
     2
 76
     1
 98
        0
  0
SPLINE
  5
75
330
41
100
AcDbEntity
  8
Ebene 1
370
     0
100
AcDbSpline
210
0.0
220
0.0
230
1.0
 70
    11
 71
     3
 72
    11
 73
     7
 74
     0
 42
0.0000000001
 43
0.0000000001
 12
1.0
 22
0.0
 32
0.0
 13
1.0
 23
0.0
 33
0.0
 40
0.0
 40
0.0
 40
0.0
 40
0.0
 40
1.0
 40
1.0
 40
1.0
 40
2.0
 40
2.0
 40
2.0
 40
2.0
 10
32.47439138374632
 20
4.991857057882847
 30
0.0
 10
32.91457579477203
 20
5.246739751600513
 30
0.0
 10
33.35476020579807
 20
5.501622445318181
 30
0.0
 10
33.79494332512309
 20
5.756505139035206
 30
0.0
 10
33.60986777224537
 20
5.904726139839501
 30
0.0
 10
32.61418299134876
 20
5.395812657091543
 30
0.0
 10
32.47439138374632
 20
4.991857057882847
 30
0.0
  0
HATCH
  5
76
330
41
100
AcDbEntity
  8
Ebene 1
 62
     7
420
 16777215
100
AcDbHatch
 10
0.0
 20
0.0
 30
0.0
210
0.0
220
0.0
230
1.0
  2
SOLID
 70
     1
 71
     0
 91
        1
 92
        1
 93
        1
 72
     4
 94
        3
 73
     0
 74
     1
 95
       11
 96
        7
 40
0.0
 40
0.0
 40
0.0
 40
0.0
 40
1.0
 40
1.0
 40
1.0
 40
2.0
 40
2.0
 40
2.0
 40
2.0
 10
32.47439138374632
 20
4.991857057882847
 10
32.91457579477203
 20
5.246739751600513
 10
33.35476020579807
 20
5.501622445318181
 10
33.79494332512309
 20
5.756505139035206
 10
33.60986777224537
 20
5.904726139839501
 10
32.61418299134876
 20
5.395812657091543
 10
32.47439138374632
 20
4.991857057882847
 97
        0
 97
        0
 75
     2
 76
     1
 98
        0
  0
SPLINE
  5
77
330
41
100
AcDbEntity
  8
Ebene 1
370
     0
100
AcDbSpline
210
0.0
220
0.0
230
1.0
 70
    11
 71
     3
 72
    11
 73
     7
 74
     0
 42
0.0000000001
 43
0.0000000001
 12
1.0
 22
0.0
 32
0.0
 13
1.0
 23
0.0
 33
0.0
 40
0.0
 40
0.0
 40
0.0
 40
0.0
 40
1.0
 40
1.0
 40
1.0
 40
2.0
 40
2.0
 40
2.0
 40
2.0
 10
32.04572764986049
 20
9.519853382158036
 30
0.0
 10
31.92965828524292
 20
8.267578192181917
 30
0.0
 10
33.95703847156424
 20
6.621049840249152
 30
0.0
 10
34.04730817802566
 20
8.962029483934327
 30
0.0
 10
33.98290233007327
 20
10.09077248149011
 30
0.0
 10
32.15465868518771
 20
11.17559168741656
 30
0.0
 10
32.04572764986049
 20
9.519853382158036
 30
0.0
  0
HATCH
  5
78
330
41
100
AcDbEntity
  8
Ebene 1
 62
     7
420
 16777215
100
AcDbHatch
 10
0.0
 20
0.0
 30
0.0
210
0.0
220
0.0
230
1.0
  2
SOLID
 70
     1
 71
     0
 91
        1
 92
        1
 93
        1
 72
     4
 94
        3
 73
     0
 74
     1
 95
       11
 96
        7
 40
0.0
 40
0.0
 40
0.0
 40
0.0
 40
1.0
 40
1.0
 40
1.0
 40
2.0
 40
2.0
 40
2.0
 40
2.0
 10
32.04572764986049
 20
9.519853382158036
 10
31.92965828524292
 20
8.267578192181917
 10
33.95703847156424
 20
6.621049840249152
 10
34.04730817802566
 20
8.962029483934327
 10
33.98290233007327
 20
10.09077248149011
 10
32.15465868518771
 20
11.17559168741656
 10
32.04572764986049
 20
9.519853382158036
 97
        0
 97
        0
 75
     2
 76
     1
 98
        0
  0
SPLINE
  5
79
330
41
100
AcDbEntity
  8
Ebene 1
370
     0
100
AcDbSpline
210
0.0
220
0.0
230
1.0
 70
    11
 71
     3
 72
    11
 73
     7
 74
     0
 42
0.0000000001
 43
0.0000000001
 12
1.0
 22
0.0
 32
0.0
 13
1.0
 23
0.0
 33
0.0
 40
0.0
 40
0.0
 40
0.0
 40
0.0
 40
1.0
 40
1.0
 40
1.0
 40
2.0
 40
2.0
 40
2.0
 40
2.0
 10
36.08352017757689
 20
10.04356105739914
 30
0.0
 10
36.29684613072632
 20
10.68462388033819
 30
0.0
 10
34.37050331008837
 20
12.8161806055686
 30
0.0
 10
34.6840205700806
 20
10.71628903937007
 30
0.0
 10
34.68699553163432
 20
10.05962387137676
 30
0.0
 10
35.91238857459498
 20
8.592183915108448
 30
0.0
 10
36.08352017757689
 20
10.04356105739914
 30
0.0
  0
HATCH
  5
7A
330
41
100
AcDbEntity
  8
Ebene 1
 62
     7
420
 16777215
100
AcDbHatch
 10
0.0
 20
0.0
 30
0.0
210
0.0
220
0.0
230
1.0
  2
SOLID
 70
     1
 71
     0
 91
        1
 92
        1
 93
        1
 72
     4
 94
        3
 73
     0
 74
     1
 95
       11
 96
        7
 40
0.0
 40
0.0
 40
0.0
 40
0.0
 40
1.0
 40
1.0
 40
1.0
 40
2.0
 40
2.0
 40
2.0
 40
2.0
 10
36.08352017757689
 20
10.04356105739914
 10
36.29684613072632
 20
10.68462388033819
 10
34.37050331008837
 20
12.8161806055686
 10
34.6840205700806
 20
10.71628903937007
 10
34.68699553163432
 20
10.05962387137676
 10
35.91238857459498
 20
8.592183915108448
 10
36.08352017757689
 20
10.04356105739914
 97
        0
 97
        0
 75
     2
 76
     1
 98
        0
  0
SPLINE
  5
7B
330
41
100
AcDbEntity
  8
Ebene 1
370
     0
100
AcDbSpline
210
0.0
220
0.0
230
1.0
 70
    11
 71
     3
 72
    11
 73
     7
 74
     0
 42
0.0000000001
 43
0.0000000001
 12
1.0
 22
0.0
 32
0.0
 13
1.0
 23
0.0
 33
0.0
 40
0.0
 40
0.0
 40
0.0
 40
0.0
 40
1.0
 40
1.0
 40
1.0
 40
2.0
 40
2.0
 40
2.0
 40
2.0
 10
24.86513206372197
 20
26.13551919109708
 30
0.0
 10
28.59563705652947
 20
25.73221192243049
 30
0.0
 10
28.71816965098414
 20
19.77815094016299
 30
0.0
 10
24.78065366951518
 20
19.69324923899948
 30
0.0
 10
20.72123150397939
 20
19.76141996294559
 30
0.0
 10
20.3497474512338
 20
26.28129950120749
 30
0.0
 10
24.86513206372197
 20
26.13551919109708
 30
0.0
  0
SPLINE
  5
7C
330
41
100
AcDbEntity
  8
Ebene 1
370
     0
100
AcDbSpline
210
0.0
220
0.0
230
1.0
 70
    11
 71
     3
 72
    11
 73
     7
 74
     0
 42
0.0000000001
 43
0.0000000001
 12
1.0
 22
0.0
 32
0.0
 13
1.0
 23
0.0
 33
0.0
 40
0.0
 40
0.0
 40
0.0
 40
0.0
 40
1.0
 40
1.0
 40
1.0
 40
2.0
 40
2.0
 40
2.0
 40
2.0
 10
24.88439078457468
 20
22.87820160894353
 30
0.0
 10
24.26625680247339
 20
23.55382399537813
 30
0.0
 10
24.41755068339957
 20
22.66169710549005
 30
0.0
 10
24.62753807357199
 20
22.49243027445649
 30
0.0
 10
24.85132224985668
 20
22.75998562645812
 30
0.0
 10
24.86908424241328
 20
22.81454818702256
 30
0.0
 10
24.88439078457468
 20
22.87820160894353
 30
0.0
  0
SPLINE
  5
7D
330
41
100
AcDbEntity
  8
Ebene 1
370
     0
100
AcDbSpline
210
0.0
220
0.0
230
1.0
 70
    11
 71
     3
 72
    11
 73
     7
 74
     0
 42
0.0000000001
 43
0.0000000001
 12
1.0
 22
0.0
 32
0.0
 13
1.0
 23
0.0
 33
0.0
 40
0.0
 40
0.0
 40
0.0
 40
0.0
 40
1.0
 40
1.0
 40
1.0
 40
2.0
 40
2.0
 40
2.0
 40
2.0
 10
25.22681994555694
 20
18.04766271837173
 30
0.0
 10
25.1490250517364
 20
18.16233237961362
 30
0.0
 10
24.98663804861919
 20
19.48456393882696
 30
0.0
 10
24.43336691454256
 20
18.92562986859807
 30
0.0
 10
24.56994273934771
 20
18.53177663669947
 30
0.0
 10
24.5356121215024
 20
18.05369804306683
 30
0.0
 10
25.22681994555694
 20
18.04766271837173
 30
0.0
  0
SPLINE
  5
7E
330
41
100
AcDbEntity
  8
Ebene 1
370
     0
100
AcDbSpline
210
0.0
220
0.0
230
1.0
 70
    11
 71
     3
 72
    11
 73
     7
 74
     0
 42
0.0000000001
 43
0.0000000001
 12
1.0
 22
0.0
 32
0.0
 13
1.0
 23
0.0
 33
0.0
 40
0.0
 40
0.0
 40
0.0
 40
0.0
 40
1.0
 40
1.0
 40
1.0
 40
2.0
 40
2.0
 40
2.0
 40
2.0
 10
27.34569187443172
 20
7.835099141534298
 30
0.0
 10
24.86654480269193
 20
8.281619407969927
 30
0.0
 10
24.72496867432654
 20
12.2804243856166
 30
0.0
 10
27.58082013712836
 20
12.38707960301342
 30
0.0
 10
30.5517315493889
 20
12.42846216738434
 30
0.0
 10
30.59886669028059
 20
7.57833596754937
 30
0.0
 10
27.34569187443172
 20
7.835099141534298
 30
0.0
  0
SPLINE
  5
7F
330
41
100
AcDbEntity
  8
Ebene 1
370
     0
100
AcDbSpline
210
0.0
220
0.0
230
1.0
 70
    11
 71
     3
 72
    11
 73
     7
 74
     0
 42
0.0000000001
 43
0.0000000001
 12
1.0
 22
0.0
 32
0.0
 13
1.0
 23
0.0
 33
0.0
 40
0.0
 40
0.0
 40
0.0
 40
0.0
 40
1.0
 40
1.0
 40
1.0
 40
2.0
 40
2.0
 40
2.0
 40
2.0
 10
27.37823241111714
 20
10.57234758036953
 30
0.0
 10
27.13713796283794
 20
10.91523496126569
 30
0.0
 10
27.11148929057593
 20
10.67013943628966
 30
0.0
 10
26.98181727217577
 20
10.61129401972496
 30
0.0
 10
27.21165398860798
 20
10.2181196239021
 30
0.0
 10
27.26511702021522
 20
10.54186014777092
 30
0.0
 10
27.37823241111714
 20
10.57234758036953
 30
0.0
  0
SPLINE
  5
80
330
41
100
AcDbEntity
  8
Ebene 1
370
     0
100
AcDbSpline
210
0.0
220
0.0
230
1.0
 70
    11
 71
     3
 72
    11
 73
     7
 74
     0
 42
0.0000000001
 43
0.0000000001
 12
1.0
 22
0.0
 32
0.0
 13
1.0
 23
0.0
 33
0.0
 40
0.0
 40
0.0
 40
0.0
 40
0.0
 40
1.0
 40
1.0
 40
1.0
 40
2.0
 40
2.0
 40
2.0
 40
2.0
 10
24.62753807357199
 20
22.49243027445649
 30
0.0
 10
25.02656299906014
 20
22.64977919121262
 30
0.0
 10
24.75625963880367
 20
23.44796864254758
 30
0.0
 10
24.40624112641892
 20
22.91827410102833
 30
0.0
 10
24.42568443524539
 20
22.84772867057054
 30
0.0
 10
24.44243050941225
 20
22.79035213755027
 30
0.0
 10
24.62753807357199
 20
22.49243027445649
 30
0.0
  0
HATCH
  5
81
330
41
100
AcDbEntity
  8
Ebene 1
 62
     7
420
 16777215
100
AcDbHatch
 10
0.0
 20
0.0
 30
0.0
210
0.0
220
0.0
230
1.0
  2
SOLID
 70
     1
 71
     0
 91
        1
 92
        1
 93
        1
 72
     4
 94
        3
 73
     0
 74
     1
 95
       11
 96
        7
 40
0.0
 40
0.0
 40
0.0
 40
0.0
 40
1.0
 40
1.0
 40
1.0
 40
2.0
 40
2.0
 40
2.0
 40
2.0
 10
24.62753807357199
 20
22.49243027445649
 10
25.02656299906014
 20
22.64977919121262
 10
24.75625963880367
 20
23.44796864254758
 10
24.40624112641892
 20
22.91827410102833
 10
24.42568443524539
 20
22.84772867057054
 10
24.44243050941225
 20
22.79035213755027
 10
24.62753807357199
 20
22.49243027445649
 97
        0
 97
        0
 75
     2
 76
     1
 98
        0
  0
SPLINE
  5
82
330
41
100
AcDbEntity
  8
Ebene 1
370
     0
100
AcDbSpline
210
0.0
220
0.0
230
1.0
 70
    11
 71
     3
 72
    11
 73
     7
 74
     0
 42
0.0000000001
 43
0.0000000001
 12
1.0
 22
0.0
 32
0.0
 13
1.0
 23
0.0
 33
0.0
 40
0.0
 40
0.0
 40
0.0
 40
0.0
 40
1.0
 40
1.0
 40
1.0
 40
2.0
 40
2.0
 40
2.0
 40
2.0
 10
26.98181727217577
 20
10.61129401972496
 30
0.0
 10
27.06863221909382
 20
10.6521784545117
 30
0.0
 10
27.06378038067701
 20
10.19326094138956
 30
0.0
 10
27.37823241111714
 20
10.57234758036953
 30
0.0
 10
27.29635166333749
 20
10.50022866609602
 30
0.0
 10
27.3217508057418
 20
10.99538779916095
 30
0.0
 10
26.98181727217577
 20
10.61129401972496
 30
0.0
  0
HATCH
  5
83
330
41
100
AcDbEntity
  8
Ebene 1
 62
     7
420
 16777215
100
AcDbHatch
 10
0.0
 20
0.0
 30
0.0
210
0.0
220
0.0
230
1.0
  2
SOLID
 70
     1
 71
     0
 91
        1
 92
        1
 93
        1
 72
     4
 94
        3
 73
     0
 74
     1
 95
       11
 96
        7
 40
0.0
 40
0.0
 40
0.0
 40
0.0
 40
1.0
 40
1.0
 40
1.0
 40
2.0
 40
2.0
 40
2.0
 40
2.0
 10
26.98181727217577
 20
10.61129401972496
 10
27.06863221909382
 20
10.6521784545117
 10
27.06378038067701
 20
10.19326094138956
 10
27.37823241111714
 20
10.57234758036953
 10
27.29635166333749
 20
10.50022866609602
 10
27.3217508057418
 20
10.99538779916095
 10
26.98181727217577
 20
10.61129401972496
 97
        0
 97
        0
 75
     2
 76
     1
 98
        0
  0
ENDBLK
  5
44
330
41
100
AcDbEntity
  8
0
100
AcDbBlockEnd
  0
ENDSEC
  0
SECTION
  2
ENTITIES
  0
INSERT
  5
42
330
1F
100
AcDbEntity
  8
Ebene 1
100
AcDbBlockReference
  2
block 2
 10
0.0
 20
0.0
 30
0.0
  0
ENDSEC
  0
SECTION
  2
OBJECTS
  0
DICTIONARY
  5
C
330
0
100
AcDbDictionary
281
     1
  3
ACAD_GROUP
350
D
  3
ACAD_LAYOUT
350
1A
  3
ACAD_MATERIAL
350
3B
  3
ACAD_MLEADERSTYLE
350
85
  3
ACAD_MLINESTYLE
350
17
  3
ACAD_PLOTSETTINGS
350
19
  3
ACAD_PLOTSTYLENAME
350
E
  3
ACAD_TABLESTYLE
350
84
  3
ACAD_VISUALSTYLE
350
2A
  0
SUN
  5
3F
330
29
100
AcDbSun
 90
        1
290
     0
 63
     7
421
 16777215
 40
1.0
291
     1
 91
  2455826
 92
 54000000
292
     0
 70
     2
 71
   256
280
     1
  0
DICTIONARY
  5
D
102
{ACAD_REACTORS
330
C
102
}
330
C
100
AcDbDictionary
281
     1
  0
DICTIONARY
  5
1A
102
{ACAD_REACTORS
330
C
102
}
330
C
100
AcDbDictionary
281
     1
  3
Layout1
350
1E
  3
Layout2
350
26
  3
Model
350
22
  0
DICTIONARY
  5
3B
102
{ACAD_REACTORS
330
C
102
}
330
C
100
AcDbDictionary
281
     1
  3
ByBlock
350
3D
  3
ByLayer
350
3C
  3
Global
350
3E
  0
DICTIONARY
  5
85
102
{ACAD_REACTORS
330
C
102
}
330
C
100
AcDbDictionary
281
     1
  0
DICTIONARY
  5
17
102
{ACAD_REACTORS
330
C
102
}
330
C
100
AcDbDictionary
281
     1
  3
Standard
350
18
  0
DICTIONARY
  5
19
102
{ACAD_REACTORS
330
C
102
}
330
C
100
AcDbDictionary
281
     1
  0
ACDBDICTIONARYWDFLT
  5
E
102
{ACAD_REACTORS
330
C
102
}
330
C
100
AcDbDictionary
281
     1
  3
Normal
350
F
100
AcDbDictionaryWithDefault
340
F
  0
DICTIONARY
  5
84
102
{ACAD_REACTORS
330
C
102
}
330
C
100
AcDbDictionary
281
     1
  0
DICTIONARY
  5
2A
102
{ACAD_REACTORS
330
C
102
}
330
C
100
AcDbDictionary
281
     1
  3
2dWireframe
350
2F
  3
3D Hidden
350
31
  3
3dWireframe
350
30
  3
Basic
350
32
  3
Brighten
350
36
  3
ColorChange
350
3A
  3
Conceptual
350
34
  3
Dim
350
35
  3
Facepattern
350
39
  3
Flat
350
2B
  3
FlatWithEdges
350
2C
  3
Gouraud
350
2D
  3
GouraudWithEdges
350
2E
  3
Linepattern
350
38
  3
Realistic
350
33
  3
Thicken
350
37
  0
LAYOUT
  5
1E
102
{ACAD_REACTORS
330
1A
102
}
330
1A
100
AcDbPlotSettings
  1

  2
none_device
  4

  6

 40
0.0
 41
0.0
 42
0.0
 43
0.0
 44
0.0
 45
0.0
 46
0.0
 47
0.0
 48
0.0
 49
0.0
140
0.0
141
0.0
142
1.0
143
1.0
 70
   688
 72
     0
 73
     0
 74
     5
  7

 75
    16
 76
     0
 77
     2
 78
   300
147
1.0
148
0.0
149
0.0
100
AcDbLayout
  1
Layout1
 70
     1
 71
     1
 10
0.0
 20
0.0
 11
12.0
 21
9.0
 12
0.0
 22
0.0
 32
0.0
 14
1.000000000000000E+20
 24
1.000000000000000E+20
 34
1.000000000000000E+20
 15
-1.000000000000000E+20
 25
-1.000000000000000E+20
 35
-1.000000000000000E+20
146
0.0
 13
0.0
 23
0.0
 33
0.0
 16
1.0
 26
0.0
 36
0.0
 17
0.0
 27
1.0
 37
0.0
 76
     0
330
1B
  0
LAYOUT
  5
26
102
{ACAD_REACTORS
330
1A
102
}
330
1A
100
AcDbPlotSettings
  1

  2
none_device
  4

  6

 40
0.0
 41
0.0
 42
0.0
 43
0.0
 44
0.0
 45
0.0
 46
0.0
 47
0.0
 48
0.0
 49
0.0
140
0.0
141
0.0
142
1.0
143
1.0
 70
   688
 72
     0
 73
     0
 74
     5
  7

 75
    16
 76
     0
 77
     2
 78
   300
147
1.0
148
0.0
149
0.0
100
AcDbLayout
  1
Layout2
 70
     1
 71
     2
 10
0.0
 20
0.0
 11
0.0
 21
0.0
 12
0.0
 22
0.0
 32
0.0
 14
0.0
 24
0.0
 34
0.0
 15
0.0
 25
0.0
 35
0.0
146
0.0
 13
0.0
 23
0.0
 33
0.0
 16
1.0
 26
0.0
 36
0.0
 17
0.0
 27
1.0
 37
0.0
 76
     0
330
23
  0
LAYOUT
  5
22
102
{ACAD_REACTORS
330
1A
102
}
330
1A
100
AcDbPlotSettings
  1

  2
none_device
  4

  6

 40
0.0
 41
0.0
 42
0.0
 43
0.0
 44
0.0
 45
0.0
 46
0.0
 47
0.0
 48
0.0
 49
0.0
140
0.0
141
0.0
142
1.0
143
1.0
 70
  1712
 72
     0
 73
     0
 74
     0
  7

 75
     0
 76
     0
 77
     2
 78
   300
147
1.0
148
0.0
149
0.0
100
AcDbLayout
  1
Model
 70
     1
 71
     0
 10
0.0
 20
0.0
 11
12.0
 21
9.0
 12
0.0
 22
0.0
 32
0.0
 14
1.000000000000000E+20
 24
1.000000000000000E+20
 34
1.000000000000000E+20
 15
-1.000000000000000E+20
 25
-1.000000000000000E+20
 35
-1.000000000000000E+20
146
0.0
 13
0.0
 23
0.0
 33
0.0
 16
1.0
 26
0.0
 36
0.0
 17
0.0
 27
1.0
 37
0.0
 76
     0
330
1F
331
29
  0
MATERIAL
  5
3D
102
{ACAD_REACTORS
330
3B
102
}
330
3B
100
AcDbMaterial
  1
ByBlock
 72
     1
 94
      127
  0
MATERIAL
  5
3C
102
{ACAD_REACTORS
330
3B
102
}
330
3B
100
AcDbMaterial
  1
ByLayer
 72
     1
 94
      127
  0
MATERIAL
  5
3E
102
{ACAD_REACTORS
330
3B
102
}
330
3B
100
AcDbMaterial
  1
Global
 72
     1
 94
      127
  0
MLINESTYLE
  5
18
102
{ACAD_REACTORS
330
17
102
}
330
17
100
AcDbMlineStyle
  2
Standard
 70
     0
  3

 62
   256
 51
90.0
 52
90.0
 71
     2
 49
0.5
 62
   256
  6
BYLAYER
 49
-0.5
 62
   256
  6
BYLAYER
  0
ACDBPLACEHOLDER
  5
F
102
{ACAD_REACTORS
330
E
102
}
330
E
  0
VISUALSTYLE
  5
2F
102
{ACAD_REACTORS
330
2A
102
}
330
2A
100
AcDbVisualStyle
  2
2dWireframe
 70
     4
177
     2
291
     0
 71
     0
176
     1
 72
     2
176
     1
 73
     0
176
     1
 90
        0
176
     1
 40
-0.6
176
     1
 41
-30.0
176
     1
 62
     5
 63
     7
421
 16777215
176
     1
 74
     1
176
     1
 91
        4
176
     1
 64
     7
176
     1
 65
   257
176
     1
 75
     1
176
     1
175
     1
176
     1
 42
1.0
176
     1
 92
        0
176
     1
 66
   257
176
     1
 43
1.0
176
     1
 76
     1
176
     1
 77
     6
176
     1
 78
     2
176
     1
 67
     7
176
     1
 79
     5
176
     1
170
     0
176
     1
171
     0
176
     1
290
     0
176
     1
 93
        1
176
     1
 44
0.0
176
     1
173
     0
176
     1
  0
VISUALSTYLE
  5
31
102
{ACAD_REACTORS
330
2A
102
}
330
2A
100
AcDbVisualStyle
  2
3D Hidden
 70
     6
177
     2
291
     0
 71
     1
176
     1
 72
     2
176
     1
 73
     2
176
     1
 90
        0
176
     1
 40
-0.6
176
     1
 41
-30.0
176
     1
 62
     5
 63
     7
421
 16777215
176
     1
 74
     2
176
     1
 91
        2
176
     1
 64
     7
176
     1
 65
   257
176
     1
 75
     2
176
     1
175
     1
176
     1
 42
40.0
176
     1
 92
        0
176
     1
 66
   257
176
     1
 43
1.0
176
     1
 76
     1
176
     1
 77
     6
176
     1
 78
     2
176
     1
 67
     7
176
     1
 79
     3
176
     1
170
     0
176
     1
171
     0
176
     1
290
     0
176
     1
 93
        1
176
     1
 44
0.0
176
     1
173
     0
176
     1
  0
VISUALSTYLE
  5
30
102
{ACAD_REACTORS
330
2A
102
}
330
2A
100
AcDbVisualStyle
  2
3dWireframe
 70
     5
177
     2
291
     0
 71
     0
176
     1
 72
     2
176
     1
 73
     0
176
     1
 90
        0
176
     1
 40
-0.6
176
     1
 41
-30.0
176
     1
 62
     5
 63
     7
421
 16777215
176
     1
 74
     1
176
     1
 91
        4
176
     1
 64
     7
176
     1
 65
   257
176
     1
 75
     1
176
     1
175
     1
176
     1
 42
1.0
176
     1
 92
        0
176
     1
 66
   257
176
     1
 43
1.0
176
     1
 76
     1
176
     1
 77
     6
176
     1
 78
     2
176
     1
 67
     7
176
     1
 79
     5
176
     1
170
     0
176
     1
171
     0
176
     1
290
     0
176
     1
 93
        1
176
     1
 44
0.0
176
     1
173
     0
176
     1
  0
VISUALSTYLE
  5
32
102
{ACAD_REACTORS
330
2A
102
}
330
2A
100
AcDbVisualStyle
  2
Basic
 70
     7
177
     2
291
     1
 71
     1
176
     1
 72
     0
176
     1
 73
     1
176
     1
 90
        0
176
     1
 40
-0.6
176
     1
 41
-30.0
176
     1
 62
     5
 63
     7
421
 16777215
176
     1
 74
     0
176
     1
 91
        4
176
     1
 64
     7
176
     1
 65
   257
176
     1
 75
     1
176
     1
175
     1
176
     1
 42
1.0
176
     1
 92
        8
176
     1
 66
     7
176
     1
 43
1.0
176
     1
 76
     1
176
     1
 77
     6
176
     1
 78
     2
176
     1
 67
     7
176
     1
 79
     5
176
     1
170
     0
176
     1
171
     0
176
     1
290
     0
176
     1
 93
        1
176
     1
 44
0.0
176
     1
173
     0
176
     1
  0
VISUALSTYLE
  5
36
102
{ACAD_REACTORS
330
2A
102
}
330
2A
100
AcDbVisualStyle
  2
Brighten
 70
    12
177
     2
291
     1
 71
     2
176
     1
 72
     2
176
     1
 73
     0
176
     1
 90
        0
176
     1
 40
-0.6
176
     1
 41
-30.0
176
     1
 62
     5
 63
     7
421
 16777215
176
     1
 74
     1
176
     1
 91
        4
176
     1
 64
     7
176
     1
 65
   257
176
     1
 75
     1
176
     1
175
     1
176
     1
 42
1.0
176
     1
 92
        8
176
     1
 66
     7
176
     1
 43
1.0
176
     1
 76
     1
176
     1
 77
     6
176
     1
 78
     2
176
     1
 67
     7
176
     1
 79
     5
176
     1
170
     0
176
     1
171
     0
176
     1
290
     0
176
     1
 93
        1
176
     1
 44
50.0
176
     1
173
     0
176
     1
  0
VISUALSTYLE
  5
3A
102
{ACAD_REACTORS
330
2A
102
}
330
2A
100
AcDbVisualStyle
  2
ColorChange
 70
    16
177
     2
291
     1
 71
     2
176
     1
 72
     2
176
     1
 73
     3
176
     1
 90
        0
176
     1
 40
-0.6
176
     1
 41
-30.0
176
     1
 62
     5
 63
     8
421
  8421504
176
     1
 74
     1
176
     1
 91
        4
176
     1
 64
     7
176
     1
 65
   257
176
     1
 75
     1
176
     1
175
     1
176
     1
 42
1.0
176
     1
 92
        8
176
     1
 66
     8
424
  8421504
176
     1
 43
1.0
176
     1
 76
     1
176
     1
 77
     6
176
     1
 78
     2
176
     1
 67
     7
176
     1
 79
     5
176
     1
170
     0
176
     1
171
     0
176
     1
290
     0
176
     1
 93
        1
176
     1
 44
0.0
176
     1
173
     0
176
     1
  0
VISUALSTYLE
  5
34
102
{ACAD_REACTORS
330
2A
102
}
330
2A
100
AcDbVisualStyle
  2
Conceptual
 70
     9
177
     2
291
     0
 71
     3
176
     1
 72
     2
176
     1
 73
     0
176
     1
 90
        0
176
     1
 40
-0.6
176
     1
 41
-30.0
176
     1
 62
     5
 63
     7
421
 16777215
176
     1
 74
     2
176
     1
 91
        2
176
     1
 64
     7
176
     1
 65
   257
176
     1
 75
     1
176
     1
175
     1
176
     1
 42
40.0
176
     1
 92
        8
176
     1
 66
     7
176
     1
 43
1.0
176
     1
 76
     1
176
     1
 77
     6
176
     1
 78
     2
176
     1
 67
     7
176
     1
 79
     3
176
     1
170
     0
176
     1
171
     0
176
     1
290
     0
176
     1
 93
        1
176
     1
 44
0.0
176
     1
173
     0
176
     1
  0
VISUALSTYLE
  5
35
102
{ACAD_REACTORS
330
2A
102
}
330
2A
100
AcDbVisualStyle
  2
Dim
 70
    11
177
     2
291
     1
 71
     2
176
     1
 72
     2
176
     1
 73
     0
176
     1
 90
        0
176
     1
 40
-0.6
176
     1
 41
-30.0
176
     1
 62
     5
 63
     7
421
 16777215
176
     1
 74
     1
176
     1
 91
        4
176
     1
 64
     7
176
     1
 65
   257
176
     1
 75
     1
176
     1
175
     1
176
     1
 42
1.0
176
     1
 92
        8
176
     1
 66
     7
176
     1
 43
1.0
176
     1
 76
     1
176
     1
 77
     6
176
     1
 78
     2
176
     1
 67
     7
176
     1
 79
     5
176
     1
170
     0
176
     1
171
     0
176
     1
290
     0
176
     1
 93
        1
176
     1
 44
-50.0
176
     1
173
     0
176
     1
  0
VISUALSTYLE
  5
39
102
{ACAD_REACTORS
330
2A
102
}
330
2A
100
AcDbVisualStyle
  2
Facepattern
 70
    15
177
     2
291
     1
 71
     2
176
     1
 72
     2
176
     1
 73
     0
176
     1
 90
        0
176
     1
 40
-0.6
176
     1
 41
-30.0
176
     1
 62
     5
 63
     7
421
 16777215
176
     1
 74
     1
176
     1
 91
        4
176
     1
 64
     7
176
     1
 65
   257
176
     1
 75
     1
176
     1
175
     1
176
     1
 42
1.0
176
     1
 92
        8
176
     1
 66
     7
176
     1
 43
1.0
176
     1
 76
     1
176
     1
 77
     6
176
     1
 78
     2
176
     1
 67
     7
176
     1
 79
     5
176
     1
170
     0
176
     1
171
     0
176
     1
290
     0
176
     1
 93
        1
176
     1
 44
0.0
176
     1
173
     0
176
     1
  0
VISUALSTYLE
  5
2B
102
{ACAD_REACTORS
330
2A
102
}
330
2A
100
AcDbVisualStyle
  2
Flat
 70
     0
177
     2
291
     1
 71
     2
176
     1
 72
     1
176
     1
 73
     1
176
     1
 90
        2
176
     1
 40
-0.6
176
     1
 41
30.0
176
     1
 62
     5
 63
     7
421
 16777215
176
     1
 74
     0
176
     1
 91
        4
176
     1
 64
     7
176
     1
 65
   257
176
     1
 75
     1
176
     1
175
     1
176
     1
 42
1.0
176
     1
 92
        8
176
     1
 66
     7
176
     1
 43
1.0
176
     1
 76
     1
176
     1
 77
     6
176
     1
 78
     2
176
     1
 67
     7
176
     1
 79
     5
176
     1
170
     0
176
     1
171
     0
176
     1
290
     0
176
     1
 93
       13
176
     1
 44
0.0
176
     1
173
     0
176
     1
  0
VISUALSTYLE
  5
2C
102
{ACAD_REACTORS
330
2A
102
}
330
2A
100
AcDbVisualStyle
  2
FlatWithEdges
 70
     1
177
     2
291
     1
 71
     2
176
     1
 72
     1
176
     1
 73
     1
176
     1
 90
        2
176
     1
 40
-0.6
176
     1
 41
30.0
176
     1
 62
     5
 63
     7
421
 16777215
176
     1
 74
     1
176
     1
 91
        4
176
     1
 64
     7
176
     1
 65
   257
176
     1
 75
     1
176
     1
175
     1
176
     1
 42
1.0
176
     1
 92
        0
176
     1
 66
   257
176
     1
 43
1.0
176
     1
 76
     1
176
     1
 77
     6
176
     1
 78
     2
176
     1
 67
     7
176
     1
 79
     5
176
     1
170
     0
176
     1
171
     0
176
     1
290
     0
176
     1
 93
       13
176
     1
 44
0.0
176
     1
173
     0
176
     1
  0
VISUALSTYLE
  5
2D
102
{ACAD_REACTORS
330
2A
102
}
330
2A
100
AcDbVisualStyle
  2
Gouraud
 70
     2
177
     2
291
     1
 71
     2
176
     1
 72
     2
176
     1
 73
     1
176
     1
 90
        2
176
     1
 40
-0.6
176
     1
 41
30.0
176
     1
 62
     5
 63
     7
421
 16777215
176
     1
 74
     0
176
     1
 91
        4
176
     1
 64
     7
176
     1
 65
   257
176
     1
 75
     1
176
     1
175
     1
176
     1
 42
1.0
176
     1
 92
        0
176
     1
 66
     7
176
     1
 43
1.0
176
     1
 76
     1
176
     1
 77
     6
176
     1
 78
     2
176
     1
 67
     7
176
     1
 79
     5
176
     1
170
     0
176
     1
171
     0
176
     1
290
     0
176
     1
 93
       13
176
     1
 44
0.0
176
     1
173
     0
176
     1
  0
VISUALSTYLE
  5
2E
102
{ACAD_REACTORS
330
2A
102
}
330
2A
100
AcDbVisualStyle
  2
GouraudWithEdges
 70
     3
177
     2
291
     1
 71
     2
176
     1
 72
     2
176
     1
 73
     1
176
     1
 90
        2
176
     1
 40
-0.6
176
     1
 41
30.0
176
     1
 62
     5
 63
     7
421
 16777215
176
     1
 74
     1
176
     1
 91
        4
176
     1
 64
     7
176
     1
 65
   257
176
     1
 75
     1
176
     1
175
     1
176
     1
 42
1.0
176
     1
 92
        0
176
     1
 66
   257
176
     1
 43
1.0
176
     1
 76
     1
176
     1
 77
     6
176
     1
 78
     2
176
     1
 67
     7
176
     1
 79
     5
176
     1
170
     0
176
     1
171
     0
176
     1
290
     0
176
     1
 93
       13
176
     1
 44
0.0
176
     1
173
     0
176
     1
  0
VISUALSTYLE
  5
38
102
{ACAD_REACTORS
330
2A
102
}
330
2A
100
AcDbVisualStyle
  2
Linepattern
 70
    14
177
     2
291
     1
 71
     2
176
     1
 72
     2
176
     1
 73
     0
176
     1
 90
        0
176
     1
 40
-0.6
176
     1
 41
-30.0
176
     1
 62
     5
 63
     7
421
 16777215
176
     1
 74
     1
176
     1
 91
        4
176
     1
 64
     7
176
     1
 65
   257
176
     1
 75
     7
176
     1
175
     7
176
     1
 42
1.0
176
     1
 92
        8
176
     1
 66
     7
176
     1
 43
1.0
176
     1
 76
     1
176
     1
 77
     6
176
     1
 78
     2
176
     1
 67
     7
176
     1
 79
     5
176
     1
170
     0
176
     1
171
     0
176
     1
290
     0
176
     1
 93
        1
176
     1
 44
0.0
176
     1
173
     0
176
     1
  0
VISUALSTYLE
  5
33
102
{ACAD_REACTORS
330
2A
102
}
330
2A
100
AcDbVisualStyle
  2
Realistic
 70
     8
177
     2
291
     0
 71
     2
176
     1
 72
     2
176
     1
 73
     0
176
     1
 90
        0
176
     1
 40
-0.6
176
     1
 41
-30.0
176
     1
 62
     5
 63
     7
421
 16777215
176
     1
 74
     1
176
     1
 91
        0
176
     1
 64
     7
176
     1
 65
   257
176
     1
 75
     1
176
     1
175
     1
176
     1
 42
1.0
176
     1
 92
        8
176
     1
 66
     8
424
  7895160
176
     1
 43
1.0
176
     1
 76
     1
176
     1
 77
     6
176
     1
 78
     2
176
     1
 67
     7
176
     1
 79
     5
176
     1
170
     0
176
     1
171
     0
176
     1
290
     0
176
     1
 93
       13
176
     1
 44
0.0
176
     1
173
     0
176
     1
  0
VISUALSTYLE
  5
37
102
{ACAD_REACTORS
330
2A
102
}
330
2A
100
AcDbVisualStyle
  2
Thicken
 70
    13
177
     2
291
     1
 71
     2
176
     1
 72
     2
176
     1
 73
     0
176
     1
 90
        0
176
     1
 40
-0.6
176
     1
 41
-30.0
176
     1
 62
     5
 63
     7
421
 16777215
176
     1
 74
     1
176
     1
 91
        4
176
     1
 64
     7
176
     1
 65
   257
176
     1
 75
     1
176
     1
175
     1
176
     1
 42
1.0
176
     1
 92
       12
176
     1
 66
     7
176
     1
 43
1.0
176
     1
 76
     1
176
     1
 77
     6
176
     1
 78
     2
176
     1
 67
     7
176
     1
 79
     5
176
     1
170
     0
176
     1
171
     0
176
     1
290
     0
176
     1
 93
        1
176
     1
 44
0.0
176
     1
173
     0
176
     1
  0
ENDSEC
  0
EOF
